<svg width="9" height="12" viewBox="0 0 9 12" fill="none" xmlns="http://www.w3.org/2000/svg">
<path d="M1.296 12L0.768 10.688L4.128 6.928C4.32 6.736 4.51733 6.51733 4.72 6.272C4.92267 6.016 5.11467 5.75467 5.296 5.488C5.488 5.21067 5.64267 4.944 5.76 4.688C5.87733 4.42133 5.936 4.176 5.936 3.952C5.936 3.664 5.872 3.41333 5.744 3.2C5.62667 2.98667 5.456 2.82133 5.232 2.704C5.008 2.58667 4.73067 2.528 4.4 2.528C4.112 2.528 3.82933 2.61333 3.552 2.784C3.28533 2.944 3.03467 3.17867 2.8 3.488C2.576 3.78667 2.38933 4.144 2.24 4.56L0.672 3.632C0.864 3.01333 1.152 2.48 1.536 2.032C1.93067 1.57333 2.38933 1.22133 2.912 0.976C3.44533 0.730666 4.02133 0.608 4.64 0.608C5.28 0.608 5.85067 0.741333 6.352 1.008C6.85333 1.27467 7.248 1.64267 7.536 2.112C7.83467 2.58133 7.984 3.13067 7.984 3.76C7.984 3.99467 7.95733 4.24 7.904 4.496C7.85067 4.74133 7.76533 5.00267 7.648 5.28C7.54133 5.54667 7.39733 5.82933 7.216 6.128C7.03467 6.416 6.816 6.72 6.56 7.04C6.31467 7.36 6.032 7.696 5.712 8.048L3.168 10.816L2.848 10.08H8.384V12H1.296Z" fill="black"/>
</svg>
