<svg width="9" height="13" viewBox="0 0 9 13" fill="none" xmlns="http://www.w3.org/2000/svg">
<path d="M4.224 12.16C3.392 12.16 2.66667 11.9787 2.048 11.616C1.42933 11.2427 0.858667 10.6133 0.336 9.728L1.904 8.736C2.14933 9.13067 2.4 9.45067 2.656 9.696C2.92267 9.93067 3.18933 10.1067 3.456 10.224C3.73333 10.3307 4.02667 10.384 4.336 10.384C4.688 10.384 5.008 10.2987 5.296 10.128C5.59467 9.95733 5.82933 9.72267 6 9.424C6.18133 9.12533 6.272 8.784 6.272 8.4C6.272 8.016 6.19733 7.69067 6.048 7.424C5.90933 7.15733 5.70133 6.95467 5.424 6.816C5.15733 6.66667 4.832 6.592 4.448 6.592C4.27733 6.592 4.096 6.61333 3.904 6.656C3.712 6.688 3.50933 6.74133 3.296 6.816C3.08267 6.88 2.848 6.96 2.592 7.056L2.08 5.696L5.264 2.176L5.744 2.64L1.024 2.608V0.768H7.6L7.984 1.536L4.304 5.552L3.824 5.024C3.90933 4.98133 4.048 4.944 4.24 4.912C4.44267 4.86933 4.61867 4.848 4.768 4.848C5.23733 4.848 5.68533 4.93867 6.112 5.12C6.53867 5.29067 6.90667 5.536 7.216 5.856C7.536 6.176 7.78667 6.54933 7.968 6.976C8.14933 7.392 8.24 7.84533 8.24 8.336C8.24 9.072 8.05867 9.728 7.696 10.304C7.344 10.8693 6.864 11.3227 6.256 11.664C5.648 11.9947 4.97067 12.16 4.224 12.16Z" fill="black"/>
</svg>
