<svg width="122" height="40" viewBox="0 0 122 40" fill="none" xmlns="http://www.w3.org/2000/svg">
<rect x="0.5" y="0.5" width="121" height="39" rx="19.5" stroke="#DE177C"/>
<path fill-rule="evenodd" clip-rule="evenodd" d="M27.47 20.5298C27.3295 20.3892 27.2506 20.1986 27.2506 19.9998C27.2506 19.8011 27.3295 19.6105 27.47 19.4698L33.47 13.4698C33.5386 13.3962 33.6214 13.3371 33.7134 13.2961C33.8054 13.2551 33.9047 13.233 34.0054 13.2313C34.1061 13.2295 34.2062 13.248 34.2995 13.2857C34.3929 13.3234 34.4778 13.3796 34.549 13.4508C34.6202 13.522 34.6764 13.6069 34.7141 13.7002C34.7518 13.7936 34.7703 13.8937 34.7685 13.9944C34.7668 14.0951 34.7447 14.1944 34.7037 14.2864C34.6627 14.3784 34.6036 14.4612 34.53 14.5298L29.81 19.2498L44 19.2498C44.1989 19.2498 44.3896 19.3289 44.5303 19.4695C44.6709 19.6102 44.75 19.8009 44.75 19.9998C44.75 20.1988 44.6709 20.3895 44.5303 20.5302C44.3896 20.6708 44.1989 20.7498 44 20.7498L29.81 20.7498L34.53 25.4698C34.6036 25.5385 34.6627 25.6213 34.7037 25.7133C34.7447 25.8053 34.7668 25.9046 34.7685 26.0053C34.7703 26.106 34.7518 26.2061 34.7141 26.2994C34.6764 26.3928 34.6202 26.4777 34.549 26.5489C34.4778 26.6201 34.3929 26.6762 34.2995 26.714C34.2062 26.7517 34.1061 26.7702 34.0054 26.7684C33.9047 26.7667 33.8054 26.7446 33.7134 26.7036C33.6214 26.6626 33.5386 26.6035 33.47 26.5298L27.47 20.5298Z" fill="#DE177C"/>
<path d="M59.504 26V14.8H64.272C65.008 14.8 65.6267 14.9067 66.128 15.12C66.64 15.3333 67.024 15.6533 67.28 16.08C67.5467 16.496 67.68 17.0027 67.68 17.6C67.68 18.2187 67.5147 18.7413 67.184 19.168C66.8533 19.5947 66.3893 19.888 65.792 20.048L65.776 19.728C66.2773 19.8347 66.7147 20.0267 67.088 20.304C67.4613 20.5707 67.7493 20.9067 67.952 21.312C68.1653 21.7067 68.272 22.16 68.272 22.672C68.272 23.216 68.1813 23.696 68 24.112C67.8293 24.528 67.5733 24.8747 67.232 25.152C66.8907 25.4293 66.4853 25.6427 66.016 25.792C65.5467 25.9307 65.0187 26 64.432 26H59.504ZM61.536 24.128H64.336C64.7307 24.128 65.0613 24.0693 65.328 23.952C65.6053 23.8347 65.8133 23.664 65.952 23.44C66.1013 23.2053 66.176 22.928 66.176 22.608C66.176 22.3093 66.096 22.0533 65.936 21.84C65.7867 21.6267 65.568 21.4667 65.28 21.36C64.992 21.2427 64.6507 21.184 64.256 21.184H61.536V24.128ZM61.536 19.392H64.08C64.3893 19.392 64.656 19.3333 64.88 19.216C65.1147 19.0987 65.296 18.9387 65.424 18.736C65.552 18.5333 65.616 18.2987 65.616 18.032C65.616 17.6053 65.472 17.2747 65.184 17.04C64.896 16.7947 64.4747 16.672 63.92 16.672H61.536V19.392ZM73.336 26.16C72.6427 26.16 72.0133 25.968 71.448 25.584C70.8827 25.2 70.4293 24.6773 70.088 24.016C69.7467 23.3547 69.576 22.6027 69.576 21.76C69.576 20.9173 69.7467 20.1653 70.088 19.504C70.4293 18.8427 70.8933 18.3253 71.48 17.952C72.0667 17.5787 72.728 17.392 73.464 17.392C73.8907 17.392 74.28 17.456 74.632 17.584C74.984 17.7013 75.2933 17.872 75.56 18.096C75.8267 18.32 76.0453 18.576 76.216 18.864C76.3973 19.152 76.52 19.4613 76.584 19.792L76.152 19.68V17.568H78.136V26H76.136V23.984L76.6 23.904C76.5253 24.192 76.3867 24.4747 76.184 24.752C75.992 25.0187 75.7467 25.2587 75.448 25.472C75.16 25.6747 74.8347 25.84 74.472 25.968C74.12 26.096 73.7413 26.16 73.336 26.16ZM73.88 24.416C74.3387 24.416 74.744 24.304 75.096 24.08C75.448 23.856 75.72 23.5467 75.912 23.152C76.1147 22.7467 76.216 22.2827 76.216 21.76C76.216 21.248 76.1147 20.7947 75.912 20.4C75.72 20.0053 75.448 19.696 75.096 19.472C74.744 19.248 74.3387 19.136 73.88 19.136C73.4213 19.136 73.016 19.248 72.664 19.472C72.3227 19.696 72.056 20.0053 71.864 20.4C71.672 20.7947 71.576 21.248 71.576 21.76C71.576 22.2827 71.672 22.7467 71.864 23.152C72.056 23.5467 72.3227 23.856 72.664 24.08C73.016 24.304 73.4213 24.416 73.88 24.416ZM84.0336 26.16C83.2443 26.16 82.535 25.968 81.9056 25.584C81.2763 25.2 80.7803 24.6773 80.4176 24.016C80.055 23.3547 79.8736 22.608 79.8736 21.776C79.8736 20.944 80.055 20.1973 80.4176 19.536C80.7803 18.8747 81.2763 18.352 81.9056 17.968C82.535 17.584 83.2443 17.392 84.0336 17.392C84.791 17.392 85.479 17.536 86.0976 17.824C86.7163 18.112 87.1963 18.512 87.5376 19.024L86.4496 20.336C86.2896 20.112 86.087 19.9093 85.8416 19.728C85.5963 19.5467 85.335 19.4027 85.0576 19.296C84.7803 19.1893 84.503 19.136 84.2256 19.136C83.7563 19.136 83.335 19.2533 82.9616 19.488C82.599 19.712 82.311 20.0267 82.0976 20.432C81.8843 20.8267 81.7776 21.2747 81.7776 21.776C81.7776 22.2773 81.8843 22.7253 82.0976 23.12C82.3216 23.5147 82.6203 23.8293 82.9936 24.064C83.367 24.2987 83.783 24.416 84.2416 24.416C84.519 24.416 84.7856 24.3733 85.0416 24.288C85.3083 24.192 85.559 24.0587 85.7936 23.888C86.0283 23.7173 86.247 23.504 86.4496 23.248L87.5376 24.576C87.175 25.0453 86.6736 25.4293 86.0336 25.728C85.4043 26.016 84.7376 26.16 84.0336 26.16ZM90.8826 23.424L90.4986 21.584L94.4986 17.568H97.1226L90.8826 23.424ZM89.0426 26V14.16H91.0106V26H89.0426ZM94.7386 26L91.6346 22.24L93.0266 21.056L97.1706 26H94.7386Z" fill="#DE177C"/>
</svg>
