<svg width="421" height="40" viewBox="0 0 421 40" fill="none" xmlns="http://www.w3.org/2000/svg">
<rect x="0.5" y="0.5" width="420" height="39" rx="19.5" stroke="#DE177C"/>
<path d="M138.757 17.5519H137.75V17.5H126.5V22.5H133.564C132.534 25.4106 129.764 27.5 126.5 27.5C122.358 27.5 119 24.1419 119 20C119 15.8581 122.358 12.5 126.5 12.5C128.412 12.5 130.151 13.2213 131.476 14.3994L135.011 10.8638C132.779 8.78313 129.793 7.5 126.5 7.5C119.597 7.5 114 13.0969 114 20C114 26.9031 119.597 32.5 126.5 32.5C133.403 32.5 139 26.9031 139 20C139 19.1619 138.914 18.3438 138.757 17.5519Z" fill="#FFC107"/>
<path d="M115.441 14.1819L119.548 17.1938C120.659 14.4425 123.351 12.5 126.5 12.5C128.412 12.5 130.151 13.2212 131.476 14.3994L135.011 10.8637C132.779 8.78312 129.792 7.5 126.5 7.5C121.699 7.5 117.535 10.2106 115.441 14.1819Z" fill="#FF3D00"/>
<path d="M126.5 32.4999C129.729 32.4999 132.662 31.2643 134.881 29.2549L131.012 25.9812C129.715 26.9677 128.13 27.5012 126.5 27.4999C123.249 27.4999 120.488 25.4268 119.448 22.5337L115.372 25.6743C117.441 29.7224 121.642 32.4999 126.5 32.4999Z" fill="#4CAF50"/>
<path d="M138.757 17.5519H137.75V17.5H126.5V22.5H133.564C133.071 23.8853 132.183 25.0957 131.01 25.9819L131.012 25.9806L134.881 29.2544C134.607 29.5031 139 26.25 139 20C139 19.1619 138.914 18.3437 138.757 17.5519Z" fill="#1976D2"/>
<path d="M156.556 26.16C155.905 26.16 155.308 26.08 154.764 25.92C154.22 25.7493 153.729 25.4987 153.292 25.168C152.855 24.8373 152.465 24.4373 152.124 23.968L153.484 22.432C154.007 23.1573 154.519 23.6587 155.02 23.936C155.521 24.2133 156.087 24.352 156.716 24.352C157.079 24.352 157.409 24.2987 157.708 24.192C158.007 24.0747 158.241 23.92 158.412 23.728C158.583 23.5253 158.668 23.296 158.668 23.04C158.668 22.8587 158.631 22.6933 158.556 22.544C158.492 22.384 158.391 22.2453 158.252 22.128C158.113 22 157.943 21.8827 157.74 21.776C157.537 21.6693 157.308 21.5787 157.052 21.504C156.796 21.4293 156.513 21.36 156.204 21.296C155.617 21.1787 155.105 21.024 154.668 20.832C154.231 20.6293 153.863 20.384 153.564 20.096C153.265 19.7973 153.047 19.4667 152.908 19.104C152.769 18.7307 152.7 18.3093 152.7 17.84C152.7 17.3707 152.801 16.9387 153.004 16.544C153.217 16.1493 153.505 15.808 153.868 15.52C154.231 15.232 154.652 15.008 155.132 14.848C155.612 14.688 156.129 14.608 156.684 14.608C157.313 14.608 157.873 14.6827 158.364 14.832C158.865 14.9813 159.303 15.2053 159.676 15.504C160.06 15.792 160.375 16.144 160.62 16.56L159.244 17.92C159.031 17.5893 158.791 17.3173 158.524 17.104C158.257 16.88 157.969 16.7147 157.66 16.608C157.351 16.4907 157.025 16.432 156.684 16.432C156.3 16.432 155.964 16.4853 155.676 16.592C155.399 16.6987 155.18 16.8533 155.02 17.056C154.86 17.248 154.78 17.4827 154.78 17.76C154.78 17.9733 154.828 18.1653 154.924 18.336C155.02 18.496 155.153 18.64 155.324 18.768C155.505 18.896 155.735 19.008 156.012 19.104C156.289 19.2 156.604 19.2853 156.956 19.36C157.543 19.4773 158.071 19.6373 158.54 19.84C159.009 20.032 159.409 20.2667 159.74 20.544C160.071 20.8107 160.321 21.12 160.492 21.472C160.663 21.8133 160.748 22.1973 160.748 22.624C160.748 23.36 160.572 23.9947 160.22 24.528C159.879 25.0507 159.393 25.456 158.764 25.744C158.135 26.0213 157.399 26.16 156.556 26.16ZM162.907 26V17.568H164.875V26H162.907ZM163.867 15.776C163.473 15.776 163.163 15.68 162.939 15.488C162.726 15.2853 162.619 15.0027 162.619 14.64C162.619 14.2987 162.731 14.0213 162.955 13.808C163.179 13.5947 163.483 13.488 163.867 13.488C164.273 13.488 164.582 13.5893 164.795 13.792C165.019 13.984 165.131 14.2667 165.131 14.64C165.131 14.9707 165.019 15.2427 164.795 15.456C164.571 15.6693 164.262 15.776 163.867 15.776ZM171.163 29.68C170.533 29.68 169.904 29.584 169.275 29.392C168.656 29.2 168.155 28.9493 167.771 28.64L168.475 27.184C168.699 27.344 168.949 27.4827 169.227 27.6C169.504 27.7173 169.797 27.808 170.107 27.872C170.427 27.936 170.741 27.968 171.051 27.968C171.616 27.968 172.085 27.8773 172.459 27.696C172.843 27.5253 173.131 27.2587 173.323 26.896C173.515 26.544 173.611 26.1013 173.611 25.568V24.016L173.899 24.128C173.835 24.4587 173.659 24.7733 173.371 25.072C173.083 25.3707 172.72 25.616 172.283 25.808C171.845 25.9893 171.397 26.08 170.939 26.08C170.139 26.08 169.429 25.8933 168.811 25.52C168.203 25.1467 167.717 24.64 167.355 24C167.003 23.3493 166.827 22.6027 166.827 21.76C166.827 20.9173 167.003 20.1707 167.355 19.52C167.707 18.8587 168.187 18.3413 168.795 17.968C169.413 17.584 170.107 17.392 170.875 17.392C171.195 17.392 171.504 17.4293 171.803 17.504C172.101 17.5787 172.373 17.6853 172.619 17.824C172.875 17.9627 173.104 18.1173 173.307 18.288C173.509 18.4587 173.675 18.64 173.803 18.832C173.931 19.024 174.011 19.2107 174.043 19.392L173.627 19.52L173.659 17.568H175.595V25.424C175.595 26.1067 175.493 26.7093 175.291 27.232C175.088 27.7547 174.795 28.1973 174.411 28.56C174.027 28.9333 173.563 29.2107 173.019 29.392C172.475 29.584 171.856 29.68 171.163 29.68ZM171.243 24.4C171.723 24.4 172.144 24.288 172.507 24.064C172.88 23.84 173.168 23.5307 173.371 23.136C173.573 22.7413 173.675 22.288 173.675 21.776C173.675 21.2533 173.568 20.7947 173.355 20.4C173.152 19.9947 172.869 19.68 172.507 19.456C172.144 19.232 171.723 19.12 171.243 19.12C170.763 19.12 170.341 19.2373 169.979 19.472C169.616 19.696 169.328 20.0107 169.115 20.416C168.912 20.8107 168.811 21.264 168.811 21.776C168.811 22.2773 168.912 22.7307 169.115 23.136C169.328 23.5307 169.616 23.84 169.979 24.064C170.341 24.288 170.763 24.4 171.243 24.4ZM177.871 26V17.568H179.791L179.823 19.296L179.455 19.488C179.561 19.104 179.769 18.7573 180.079 18.448C180.388 18.128 180.756 17.872 181.183 17.68C181.609 17.488 182.047 17.392 182.495 17.392C183.135 17.392 183.668 17.52 184.095 17.776C184.532 18.032 184.857 18.416 185.071 18.928C185.295 19.44 185.407 20.08 185.407 20.848V26H183.439V20.992C183.439 20.5653 183.38 20.2133 183.263 19.936C183.145 19.648 182.964 19.44 182.719 19.312C182.473 19.1733 182.175 19.1093 181.823 19.12C181.535 19.12 181.268 19.168 181.023 19.264C180.788 19.3493 180.58 19.4773 180.399 19.648C180.228 19.808 180.089 19.9947 179.983 20.208C179.887 20.4213 179.839 20.656 179.839 20.912V26H178.863C178.671 26 178.489 26 178.319 26C178.159 26 178.009 26 177.871 26ZM195.252 26.16C194.644 26.16 194.116 26.0267 193.668 25.76C193.22 25.4827 192.879 25.0933 192.644 24.592C192.409 24.08 192.292 23.472 192.292 22.768V17.568H194.26V22.352C194.26 22.8 194.329 23.184 194.468 23.504C194.607 23.8133 194.809 24.0533 195.076 24.224C195.343 24.3947 195.663 24.48 196.036 24.48C196.313 24.48 196.564 24.4373 196.788 24.352C197.023 24.256 197.225 24.128 197.396 23.968C197.567 23.7973 197.7 23.6 197.796 23.376C197.892 23.1413 197.94 22.8907 197.94 22.624V17.568H199.908V26H197.988L197.956 24.24L198.308 24.048C198.18 24.4533 197.961 24.816 197.652 25.136C197.353 25.4453 196.996 25.696 196.58 25.888C196.164 26.0693 195.721 26.16 195.252 26.16ZM202.215 29.52V17.568H204.151L204.183 19.488L203.847 19.344C203.911 19.0133 204.092 18.704 204.391 18.416C204.689 18.1173 205.052 17.8773 205.479 17.696C205.916 17.5147 206.369 17.424 206.839 17.424C207.585 17.424 208.247 17.6107 208.823 17.984C209.409 18.3573 209.868 18.8693 210.199 19.52C210.54 20.1707 210.711 20.9227 210.711 21.776C210.711 22.6187 210.54 23.3707 210.199 24.032C209.868 24.6827 209.409 25.2 208.823 25.584C208.247 25.9573 207.596 26.144 206.871 26.144C206.38 26.144 205.905 26.048 205.447 25.856C204.999 25.664 204.615 25.4133 204.295 25.104C203.985 24.7947 203.793 24.4693 203.719 24.128L204.199 23.904V29.52H202.215ZM206.471 24.4C206.919 24.4 207.319 24.288 207.671 24.064C208.023 23.84 208.295 23.5307 208.487 23.136C208.689 22.7413 208.791 22.288 208.791 21.776C208.791 21.264 208.695 20.816 208.503 20.432C208.311 20.0373 208.039 19.728 207.687 19.504C207.335 19.28 206.929 19.168 206.471 19.168C206.001 19.168 205.591 19.28 205.239 19.504C204.897 19.7173 204.625 20.0213 204.423 20.416C204.22 20.8107 204.119 21.264 204.119 21.776C204.119 22.288 204.22 22.7413 204.423 23.136C204.625 23.5307 204.897 23.84 205.239 24.064C205.591 24.288 206.001 24.4 206.471 24.4ZM219.152 26L216.32 17.568L218.336 17.552L220.224 23.568L219.872 23.536L221.92 18.832H223.104L225.2 23.536L224.784 23.584L226.688 17.568H228.704L225.856 26H224.448L222.288 20.944L222.592 20.976L220.544 26H219.152ZM230.376 26V17.568H232.344V26H230.376ZM231.336 15.776C230.941 15.776 230.632 15.68 230.408 15.488C230.195 15.2853 230.088 15.0027 230.088 14.64C230.088 14.2987 230.2 14.0213 230.424 13.808C230.648 13.5947 230.952 13.488 231.336 13.488C231.741 13.488 232.051 13.5893 232.264 13.792C232.488 13.984 232.6 14.2667 232.6 14.64C232.6 14.9707 232.488 15.2427 232.264 15.456C232.04 15.6693 231.731 15.776 231.336 15.776ZM235.752 26V15.424H237.72V26H235.752ZM234.088 19.392V17.568H239.56V19.392H234.088ZM241.058 26V14.16H243.01V19.296L242.642 19.488C242.749 19.104 242.957 18.7573 243.266 18.448C243.576 18.128 243.944 17.872 244.37 17.68C244.797 17.488 245.234 17.392 245.682 17.392C246.322 17.392 246.856 17.52 247.282 17.776C247.72 18.032 248.045 18.416 248.258 18.928C248.482 19.44 248.594 20.08 248.594 20.848V26H246.626V20.992C246.626 20.5653 246.568 20.2133 246.45 19.936C246.333 19.648 246.152 19.44 245.906 19.312C245.661 19.1733 245.362 19.1093 245.01 19.12C244.722 19.12 244.456 19.168 244.21 19.264C243.976 19.3493 243.768 19.4773 243.586 19.648C243.416 19.808 243.277 19.9947 243.17 20.208C243.074 20.4213 243.026 20.656 243.026 20.912V26H242.05C241.858 26 241.677 26 241.506 26C241.346 26 241.197 26 241.058 26ZM259.303 29.68C258.674 29.68 258.045 29.584 257.415 29.392C256.797 29.2 256.295 28.9493 255.911 28.64L256.615 27.184C256.839 27.344 257.09 27.4827 257.367 27.6C257.645 27.7173 257.938 27.808 258.247 27.872C258.567 27.936 258.882 27.968 259.191 27.968C259.757 27.968 260.226 27.8773 260.599 27.696C260.983 27.5253 261.271 27.2587 261.463 26.896C261.655 26.544 261.751 26.1013 261.751 25.568V24.016L262.039 24.128C261.975 24.4587 261.799 24.7733 261.511 25.072C261.223 25.3707 260.861 25.616 260.423 25.808C259.986 25.9893 259.538 26.08 259.079 26.08C258.279 26.08 257.57 25.8933 256.951 25.52C256.343 25.1467 255.858 24.64 255.495 24C255.143 23.3493 254.967 22.6027 254.967 21.76C254.967 20.9173 255.143 20.1707 255.495 19.52C255.847 18.8587 256.327 18.3413 256.935 17.968C257.554 17.584 258.247 17.392 259.015 17.392C259.335 17.392 259.645 17.4293 259.943 17.504C260.242 17.5787 260.514 17.6853 260.759 17.824C261.015 17.9627 261.245 18.1173 261.447 18.288C261.65 18.4587 261.815 18.64 261.943 18.832C262.071 19.024 262.151 19.2107 262.183 19.392L261.767 19.52L261.799 17.568H263.735V25.424C263.735 26.1067 263.634 26.7093 263.431 27.232C263.229 27.7547 262.935 28.1973 262.551 28.56C262.167 28.9333 261.703 29.2107 261.159 29.392C260.615 29.584 259.997 29.68 259.303 29.68ZM259.383 24.4C259.863 24.4 260.285 24.288 260.647 24.064C261.021 23.84 261.309 23.5307 261.511 23.136C261.714 22.7413 261.815 22.288 261.815 21.776C261.815 21.2533 261.709 20.7947 261.495 20.4C261.293 19.9947 261.01 19.68 260.647 19.456C260.285 19.232 259.863 19.12 259.383 19.12C258.903 19.12 258.482 19.2373 258.119 19.472C257.757 19.696 257.469 20.0107 257.255 20.416C257.053 20.8107 256.951 21.264 256.951 21.776C256.951 22.2773 257.053 22.7307 257.255 23.136C257.469 23.5307 257.757 23.84 258.119 24.064C258.482 24.288 258.903 24.4 259.383 24.4ZM269.867 26.16C269.025 26.16 268.273 25.9733 267.611 25.6C266.95 25.216 266.427 24.6933 266.043 24.032C265.659 23.3707 265.467 22.6187 265.467 21.776C265.467 20.9333 265.659 20.1813 266.043 19.52C266.427 18.8587 266.95 18.3413 267.611 17.968C268.273 17.584 269.025 17.392 269.867 17.392C270.699 17.392 271.446 17.584 272.107 17.968C272.769 18.3413 273.286 18.8587 273.659 19.52C274.043 20.1813 274.235 20.9333 274.235 21.776C274.235 22.6187 274.043 23.3707 273.659 24.032C273.286 24.6933 272.769 25.216 272.107 25.6C271.446 25.9733 270.699 26.16 269.867 26.16ZM269.867 24.416C270.326 24.416 270.731 24.2987 271.083 24.064C271.446 23.8293 271.729 23.5147 271.931 23.12C272.145 22.7253 272.246 22.2773 272.235 21.776C272.246 21.264 272.145 20.8107 271.931 20.416C271.729 20.0213 271.446 19.712 271.083 19.488C270.731 19.2533 270.326 19.136 269.867 19.136C269.409 19.136 268.993 19.2533 268.619 19.488C268.257 19.712 267.974 20.0267 267.771 20.432C267.569 20.8267 267.467 21.2747 267.467 21.776C267.467 22.2773 267.569 22.7253 267.771 23.12C267.974 23.5147 268.257 23.8293 268.619 24.064C268.993 24.2987 269.409 24.416 269.867 24.416ZM279.852 26.16C279.009 26.16 278.257 25.9733 277.596 25.6C276.934 25.216 276.412 24.6933 276.028 24.032C275.644 23.3707 275.452 22.6187 275.452 21.776C275.452 20.9333 275.644 20.1813 276.028 19.52C276.412 18.8587 276.934 18.3413 277.596 17.968C278.257 17.584 279.009 17.392 279.852 17.392C280.684 17.392 281.43 17.584 282.092 17.968C282.753 18.3413 283.27 18.8587 283.644 19.52C284.028 20.1813 284.22 20.9333 284.22 21.776C284.22 22.6187 284.028 23.3707 283.644 24.032C283.27 24.6933 282.753 25.216 282.092 25.6C281.43 25.9733 280.684 26.16 279.852 26.16ZM279.852 24.416C280.31 24.416 280.716 24.2987 281.068 24.064C281.43 23.8293 281.713 23.5147 281.916 23.12C282.129 22.7253 282.23 22.2773 282.22 21.776C282.23 21.264 282.129 20.8107 281.916 20.416C281.713 20.0213 281.43 19.712 281.068 19.488C280.716 19.2533 280.31 19.136 279.852 19.136C279.393 19.136 278.977 19.2533 278.604 19.488C278.241 19.712 277.958 20.0267 277.756 20.432C277.553 20.8267 277.452 21.2747 277.452 21.776C277.452 22.2773 277.553 22.7253 277.756 23.12C277.958 23.5147 278.241 23.8293 278.604 24.064C278.977 24.2987 279.393 24.416 279.852 24.416ZM289.772 29.68C289.143 29.68 288.513 29.584 287.884 29.392C287.265 29.2 286.764 28.9493 286.38 28.64L287.084 27.184C287.308 27.344 287.559 27.4827 287.836 27.6C288.113 27.7173 288.407 27.808 288.716 27.872C289.036 27.936 289.351 27.968 289.66 27.968C290.225 27.968 290.695 27.8773 291.068 27.696C291.452 27.5253 291.74 27.2587 291.932 26.896C292.124 26.544 292.22 26.1013 292.22 25.568V24.016L292.508 24.128C292.444 24.4587 292.268 24.7733 291.98 25.072C291.692 25.3707 291.329 25.616 290.892 25.808C290.455 25.9893 290.007 26.08 289.548 26.08C288.748 26.08 288.039 25.8933 287.42 25.52C286.812 25.1467 286.327 24.64 285.964 24C285.612 23.3493 285.436 22.6027 285.436 21.76C285.436 20.9173 285.612 20.1707 285.964 19.52C286.316 18.8587 286.796 18.3413 287.404 17.968C288.023 17.584 288.716 17.392 289.484 17.392C289.804 17.392 290.113 17.4293 290.412 17.504C290.711 17.5787 290.983 17.6853 291.228 17.824C291.484 17.9627 291.713 18.1173 291.916 18.288C292.119 18.4587 292.284 18.64 292.412 18.832C292.54 19.024 292.62 19.2107 292.652 19.392L292.236 19.52L292.268 17.568H294.204V25.424C294.204 26.1067 294.103 26.7093 293.9 27.232C293.697 27.7547 293.404 28.1973 293.02 28.56C292.636 28.9333 292.172 29.2107 291.628 29.392C291.084 29.584 290.465 29.68 289.772 29.68ZM289.852 24.4C290.332 24.4 290.753 24.288 291.116 24.064C291.489 23.84 291.777 23.5307 291.98 23.136C292.183 22.7413 292.284 22.288 292.284 21.776C292.284 21.2533 292.177 20.7947 291.964 20.4C291.761 19.9947 291.479 19.68 291.116 19.456C290.753 19.232 290.332 19.12 289.852 19.12C289.372 19.12 288.951 19.2373 288.588 19.472C288.225 19.696 287.937 20.0107 287.724 20.416C287.521 20.8107 287.42 21.264 287.42 21.776C287.42 22.2773 287.521 22.7307 287.724 23.136C287.937 23.5307 288.225 23.84 288.588 24.064C288.951 24.288 289.372 24.4 289.852 24.4ZM296.496 26V14.16H298.48V26H296.496ZM304.588 26.16C303.703 26.16 302.919 25.9733 302.236 25.6C301.564 25.2267 301.036 24.72 300.652 24.08C300.279 23.4293 300.092 22.688 300.092 21.856C300.092 21.1947 300.199 20.592 300.412 20.048C300.626 19.504 300.919 19.0347 301.292 18.64C301.676 18.2347 302.13 17.9253 302.652 17.712C303.186 17.488 303.767 17.376 304.396 17.376C304.951 17.376 305.468 17.4827 305.948 17.696C306.428 17.9093 306.844 18.2027 307.196 18.576C307.548 18.9387 307.815 19.376 307.996 19.888C308.188 20.3893 308.279 20.9387 308.268 21.536L308.252 22.224H301.42L301.052 20.88H306.604L306.348 21.152V20.8C306.316 20.4693 306.21 20.1813 306.028 19.936C305.847 19.68 305.612 19.4827 305.324 19.344C305.047 19.1947 304.738 19.12 304.396 19.12C303.874 19.12 303.431 19.2213 303.068 19.424C302.716 19.6267 302.45 19.92 302.268 20.304C302.087 20.6773 301.996 21.1467 301.996 21.712C301.996 22.256 302.108 22.7307 302.332 23.136C302.567 23.5413 302.892 23.856 303.308 24.08C303.735 24.2933 304.231 24.4 304.796 24.4C305.191 24.4 305.554 24.336 305.884 24.208C306.215 24.08 306.572 23.8507 306.956 23.52L307.932 24.88C307.644 25.1467 307.314 25.376 306.94 25.568C306.578 25.7493 306.194 25.8933 305.788 26C305.383 26.1067 304.983 26.16 304.588 26.16Z" fill="#DE177C"/>
</svg>
