<svg width="300" height="40" viewBox="0 0 300 40" fill="none" xmlns="http://www.w3.org/2000/svg">
<rect x="0.5" y="0.5" width="299" height="39" rx="19.5" stroke="#DE177C"/>
<path d="M81.2569 17.5519H80.25V17.5H69V22.5H76.0644C75.0338 25.4106 72.2644 27.5 69 27.5C64.8581 27.5 61.5 24.1419 61.5 20C61.5 15.8581 64.8581 12.5 69 12.5C70.9119 12.5 72.6513 13.2213 73.9756 14.3994L77.5113 10.8638C75.2788 8.78313 72.2925 7.5 69 7.5C62.0969 7.5 56.5 13.0969 56.5 20C56.5 26.9031 62.0969 32.5 69 32.5C75.9031 32.5 81.5 26.9031 81.5 20C81.5 19.1619 81.4138 18.3438 81.2569 17.5519Z" fill="#FFC107"/>
<path d="M57.9413 14.1819L62.0482 17.1938C63.1594 14.4425 65.8507 12.5 69 12.5C70.9119 12.5 72.6513 13.2212 73.9757 14.3994L77.5113 10.8637C75.2788 8.78312 72.2925 7.5 69 7.5C64.1988 7.5 60.035 10.2106 57.9413 14.1819Z" fill="#FF3D00"/>
<path d="M69 32.4999C72.2287 32.4999 75.1625 31.2643 77.3806 29.2549L73.5118 25.9812C72.2147 26.9677 70.6296 27.5012 69 27.4999C65.7487 27.4999 62.9881 25.4268 61.9481 22.5337L57.8718 25.6743C59.9406 29.7224 64.1418 32.4999 69 32.4999Z" fill="#4CAF50"/>
<path d="M81.2569 17.5519H80.25V17.5H69V22.5H76.0644C75.5714 23.8853 74.6833 25.0957 73.51 25.9819L73.5119 25.9806L77.3806 29.2544C77.1069 29.5031 81.5 26.25 81.5 20C81.5 19.1619 81.4138 18.3437 81.2569 17.5519Z" fill="#1976D2"/>
<path d="M99.056 26.16C98.4053 26.16 97.808 26.08 97.264 25.92C96.72 25.7493 96.2293 25.4987 95.792 25.168C95.3547 24.8373 94.9653 24.4373 94.624 23.968L95.984 22.432C96.5067 23.1573 97.0187 23.6587 97.52 23.936C98.0213 24.2133 98.5867 24.352 99.216 24.352C99.5787 24.352 99.9093 24.2987 100.208 24.192C100.507 24.0747 100.741 23.92 100.912 23.728C101.083 23.5253 101.168 23.296 101.168 23.04C101.168 22.8587 101.131 22.6933 101.056 22.544C100.992 22.384 100.891 22.2453 100.752 22.128C100.613 22 100.443 21.8827 100.24 21.776C100.037 21.6693 99.808 21.5787 99.552 21.504C99.296 21.4293 99.0133 21.36 98.704 21.296C98.1173 21.1787 97.6053 21.024 97.168 20.832C96.7307 20.6293 96.3627 20.384 96.064 20.096C95.7653 19.7973 95.5467 19.4667 95.408 19.104C95.2693 18.7307 95.2 18.3093 95.2 17.84C95.2 17.3707 95.3013 16.9387 95.504 16.544C95.7173 16.1493 96.0053 15.808 96.368 15.52C96.7307 15.232 97.152 15.008 97.632 14.848C98.112 14.688 98.6293 14.608 99.184 14.608C99.8133 14.608 100.373 14.6827 100.864 14.832C101.365 14.9813 101.803 15.2053 102.176 15.504C102.56 15.792 102.875 16.144 103.12 16.56L101.744 17.92C101.531 17.5893 101.291 17.3173 101.024 17.104C100.757 16.88 100.469 16.7147 100.16 16.608C99.8507 16.4907 99.5253 16.432 99.184 16.432C98.8 16.432 98.464 16.4853 98.176 16.592C97.8987 16.6987 97.68 16.8533 97.52 17.056C97.36 17.248 97.28 17.4827 97.28 17.76C97.28 17.9733 97.328 18.1653 97.424 18.336C97.52 18.496 97.6533 18.64 97.824 18.768C98.0053 18.896 98.2347 19.008 98.512 19.104C98.7893 19.2 99.104 19.2853 99.456 19.36C100.043 19.4773 100.571 19.6373 101.04 19.84C101.509 20.032 101.909 20.2667 102.24 20.544C102.571 20.8107 102.821 21.12 102.992 21.472C103.163 21.8133 103.248 22.1973 103.248 22.624C103.248 23.36 103.072 23.9947 102.72 24.528C102.379 25.0507 101.893 25.456 101.264 25.744C100.635 26.0213 99.8987 26.16 99.056 26.16ZM105.407 26V17.568H107.375V26H105.407ZM106.367 15.776C105.973 15.776 105.663 15.68 105.439 15.488C105.226 15.2853 105.119 15.0027 105.119 14.64C105.119 14.2987 105.231 14.0213 105.455 13.808C105.679 13.5947 105.983 13.488 106.367 13.488C106.773 13.488 107.082 13.5893 107.295 13.792C107.519 13.984 107.631 14.2667 107.631 14.64C107.631 14.9707 107.519 15.2427 107.295 15.456C107.071 15.6693 106.762 15.776 106.367 15.776ZM113.663 29.68C113.033 29.68 112.404 29.584 111.775 29.392C111.156 29.2 110.655 28.9493 110.271 28.64L110.975 27.184C111.199 27.344 111.449 27.4827 111.727 27.6C112.004 27.7173 112.297 27.808 112.607 27.872C112.927 27.936 113.241 27.968 113.551 27.968C114.116 27.968 114.585 27.8773 114.959 27.696C115.343 27.5253 115.631 27.2587 115.823 26.896C116.015 26.544 116.111 26.1013 116.111 25.568V24.016L116.399 24.128C116.335 24.4587 116.159 24.7733 115.871 25.072C115.583 25.3707 115.22 25.616 114.783 25.808C114.345 25.9893 113.897 26.08 113.439 26.08C112.639 26.08 111.929 25.8933 111.311 25.52C110.703 25.1467 110.217 24.64 109.855 24C109.503 23.3493 109.327 22.6027 109.327 21.76C109.327 20.9173 109.503 20.1707 109.855 19.52C110.207 18.8587 110.687 18.3413 111.295 17.968C111.913 17.584 112.607 17.392 113.375 17.392C113.695 17.392 114.004 17.4293 114.303 17.504C114.601 17.5787 114.873 17.6853 115.119 17.824C115.375 17.9627 115.604 18.1173 115.807 18.288C116.009 18.4587 116.175 18.64 116.303 18.832C116.431 19.024 116.511 19.2107 116.543 19.392L116.127 19.52L116.159 17.568H118.095V25.424C118.095 26.1067 117.993 26.7093 117.791 27.232C117.588 27.7547 117.295 28.1973 116.911 28.56C116.527 28.9333 116.063 29.2107 115.519 29.392C114.975 29.584 114.356 29.68 113.663 29.68ZM113.743 24.4C114.223 24.4 114.644 24.288 115.007 24.064C115.38 23.84 115.668 23.5307 115.871 23.136C116.073 22.7413 116.175 22.288 116.175 21.776C116.175 21.2533 116.068 20.7947 115.855 20.4C115.652 19.9947 115.369 19.68 115.007 19.456C114.644 19.232 114.223 19.12 113.743 19.12C113.263 19.12 112.841 19.2373 112.479 19.472C112.116 19.696 111.828 20.0107 111.615 20.416C111.412 20.8107 111.311 21.264 111.311 21.776C111.311 22.2773 111.412 22.7307 111.615 23.136C111.828 23.5307 112.116 23.84 112.479 24.064C112.841 24.288 113.263 24.4 113.743 24.4ZM120.371 26V17.568H122.291L122.323 19.296L121.955 19.488C122.061 19.104 122.269 18.7573 122.579 18.448C122.888 18.128 123.256 17.872 123.683 17.68C124.109 17.488 124.547 17.392 124.995 17.392C125.635 17.392 126.168 17.52 126.595 17.776C127.032 18.032 127.357 18.416 127.571 18.928C127.795 19.44 127.907 20.08 127.907 20.848V26H125.939V20.992C125.939 20.5653 125.88 20.2133 125.763 19.936C125.645 19.648 125.464 19.44 125.219 19.312C124.973 19.1733 124.675 19.1093 124.323 19.12C124.035 19.12 123.768 19.168 123.523 19.264C123.288 19.3493 123.08 19.4773 122.899 19.648C122.728 19.808 122.589 19.9947 122.483 20.208C122.387 20.4213 122.339 20.656 122.339 20.912V26H121.363C121.171 26 120.989 26 120.819 26C120.659 26 120.509 26 120.371 26ZM135.048 26V17.568H137.016V26H135.048ZM136.008 15.776C135.613 15.776 135.304 15.68 135.08 15.488C134.867 15.2853 134.76 15.0027 134.76 14.64C134.76 14.2987 134.872 14.0213 135.096 13.808C135.32 13.5947 135.624 13.488 136.008 13.488C136.413 13.488 136.723 13.5893 136.936 13.792C137.16 13.984 137.272 14.2667 137.272 14.64C137.272 14.9707 137.16 15.2427 136.936 15.456C136.712 15.6693 136.403 15.776 136.008 15.776ZM139.511 26V17.568H141.431L141.463 19.296L141.095 19.488C141.202 19.104 141.41 18.7573 141.719 18.448C142.029 18.128 142.397 17.872 142.823 17.68C143.25 17.488 143.687 17.392 144.135 17.392C144.775 17.392 145.309 17.52 145.735 17.776C146.173 18.032 146.498 18.416 146.711 18.928C146.935 19.44 147.047 20.08 147.047 20.848V26H145.079V20.992C145.079 20.5653 145.021 20.2133 144.903 19.936C144.786 19.648 144.605 19.44 144.359 19.312C144.114 19.1733 143.815 19.1093 143.463 19.12C143.175 19.12 142.909 19.168 142.663 19.264C142.429 19.3493 142.221 19.4773 142.039 19.648C141.869 19.808 141.73 19.9947 141.623 20.208C141.527 20.4213 141.479 20.656 141.479 20.912V26H140.503C140.311 26 140.13 26 139.959 26C139.799 26 139.65 26 139.511 26ZM155.949 26L153.117 17.568L155.133 17.552L157.021 23.568L156.669 23.536L158.717 18.832H159.901L161.997 23.536L161.581 23.584L163.485 17.568H165.501L162.653 26H161.245L159.085 20.944L159.389 20.976L157.341 26H155.949ZM167.173 26V17.568H169.141V26H167.173ZM168.133 15.776C167.738 15.776 167.429 15.68 167.205 15.488C166.992 15.2853 166.885 15.0027 166.885 14.64C166.885 14.2987 166.997 14.0213 167.221 13.808C167.445 13.5947 167.749 13.488 168.133 13.488C168.538 13.488 168.848 13.5893 169.061 13.792C169.285 13.984 169.397 14.2667 169.397 14.64C169.397 14.9707 169.285 15.2427 169.061 15.456C168.837 15.6693 168.528 15.776 168.133 15.776ZM172.548 26V15.424H174.516V26H172.548ZM170.884 19.392V17.568H176.356V19.392H170.884ZM177.855 26V14.16H179.807V19.296L179.439 19.488C179.546 19.104 179.754 18.7573 180.063 18.448C180.372 18.128 180.74 17.872 181.167 17.68C181.594 17.488 182.031 17.392 182.479 17.392C183.119 17.392 183.652 17.52 184.079 17.776C184.516 18.032 184.842 18.416 185.055 18.928C185.279 19.44 185.391 20.08 185.391 20.848V26H183.423V20.992C183.423 20.5653 183.364 20.2133 183.247 19.936C183.13 19.648 182.948 19.44 182.703 19.312C182.458 19.1733 182.159 19.1093 181.807 19.12C181.519 19.12 181.252 19.168 181.007 19.264C180.772 19.3493 180.564 19.4773 180.383 19.648C180.212 19.808 180.074 19.9947 179.967 20.208C179.871 20.4213 179.823 20.656 179.823 20.912V26H178.847C178.655 26 178.474 26 178.303 26C178.143 26 177.994 26 177.855 26ZM196.1 29.68C195.471 29.68 194.842 29.584 194.212 29.392C193.594 29.2 193.092 28.9493 192.708 28.64L193.412 27.184C193.636 27.344 193.887 27.4827 194.164 27.6C194.442 27.7173 194.735 27.808 195.044 27.872C195.364 27.936 195.679 27.968 195.988 27.968C196.554 27.968 197.023 27.8773 197.396 27.696C197.78 27.5253 198.068 27.2587 198.26 26.896C198.452 26.544 198.548 26.1013 198.548 25.568V24.016L198.836 24.128C198.772 24.4587 198.596 24.7733 198.308 25.072C198.02 25.3707 197.658 25.616 197.22 25.808C196.783 25.9893 196.335 26.08 195.876 26.08C195.076 26.08 194.367 25.8933 193.748 25.52C193.14 25.1467 192.655 24.64 192.292 24C191.94 23.3493 191.764 22.6027 191.764 21.76C191.764 20.9173 191.94 20.1707 192.292 19.52C192.644 18.8587 193.124 18.3413 193.732 17.968C194.351 17.584 195.044 17.392 195.812 17.392C196.132 17.392 196.442 17.4293 196.74 17.504C197.039 17.5787 197.311 17.6853 197.556 17.824C197.812 17.9627 198.042 18.1173 198.244 18.288C198.447 18.4587 198.612 18.64 198.74 18.832C198.868 19.024 198.948 19.2107 198.98 19.392L198.564 19.52L198.596 17.568H200.532V25.424C200.532 26.1067 200.431 26.7093 200.228 27.232C200.026 27.7547 199.732 28.1973 199.348 28.56C198.964 28.9333 198.5 29.2107 197.956 29.392C197.412 29.584 196.794 29.68 196.1 29.68ZM196.18 24.4C196.66 24.4 197.082 24.288 197.444 24.064C197.818 23.84 198.106 23.5307 198.308 23.136C198.511 22.7413 198.612 22.288 198.612 21.776C198.612 21.2533 198.506 20.7947 198.292 20.4C198.09 19.9947 197.807 19.68 197.444 19.456C197.082 19.232 196.66 19.12 196.18 19.12C195.7 19.12 195.279 19.2373 194.916 19.472C194.554 19.696 194.266 20.0107 194.052 20.416C193.85 20.8107 193.748 21.264 193.748 21.776C193.748 22.2773 193.85 22.7307 194.052 23.136C194.266 23.5307 194.554 23.84 194.916 24.064C195.279 24.288 195.7 24.4 196.18 24.4ZM206.664 26.16C205.822 26.16 205.07 25.9733 204.408 25.6C203.747 25.216 203.224 24.6933 202.84 24.032C202.456 23.3707 202.264 22.6187 202.264 21.776C202.264 20.9333 202.456 20.1813 202.84 19.52C203.224 18.8587 203.747 18.3413 204.408 17.968C205.07 17.584 205.822 17.392 206.664 17.392C207.496 17.392 208.243 17.584 208.904 17.968C209.566 18.3413 210.083 18.8587 210.456 19.52C210.84 20.1813 211.032 20.9333 211.032 21.776C211.032 22.6187 210.84 23.3707 210.456 24.032C210.083 24.6933 209.566 25.216 208.904 25.6C208.243 25.9733 207.496 26.16 206.664 26.16ZM206.664 24.416C207.123 24.416 207.528 24.2987 207.88 24.064C208.243 23.8293 208.526 23.5147 208.728 23.12C208.942 22.7253 209.043 22.2773 209.032 21.776C209.043 21.264 208.942 20.8107 208.728 20.416C208.526 20.0213 208.243 19.712 207.88 19.488C207.528 19.2533 207.123 19.136 206.664 19.136C206.206 19.136 205.79 19.2533 205.416 19.488C205.054 19.712 204.771 20.0267 204.568 20.432C204.366 20.8267 204.264 21.2747 204.264 21.776C204.264 22.2773 204.366 22.7253 204.568 23.12C204.771 23.5147 205.054 23.8293 205.416 24.064C205.79 24.2987 206.206 24.416 206.664 24.416ZM216.649 26.16C215.806 26.16 215.054 25.9733 214.393 25.6C213.731 25.216 213.209 24.6933 212.825 24.032C212.441 23.3707 212.249 22.6187 212.249 21.776C212.249 20.9333 212.441 20.1813 212.825 19.52C213.209 18.8587 213.731 18.3413 214.393 17.968C215.054 17.584 215.806 17.392 216.649 17.392C217.481 17.392 218.227 17.584 218.889 17.968C219.55 18.3413 220.067 18.8587 220.441 19.52C220.825 20.1813 221.017 20.9333 221.017 21.776C221.017 22.6187 220.825 23.3707 220.441 24.032C220.067 24.6933 219.55 25.216 218.889 25.6C218.227 25.9733 217.481 26.16 216.649 26.16ZM216.649 24.416C217.107 24.416 217.513 24.2987 217.865 24.064C218.227 23.8293 218.51 23.5147 218.713 23.12C218.926 22.7253 219.027 22.2773 219.017 21.776C219.027 21.264 218.926 20.8107 218.713 20.416C218.51 20.0213 218.227 19.712 217.865 19.488C217.513 19.2533 217.107 19.136 216.649 19.136C216.19 19.136 215.774 19.2533 215.401 19.488C215.038 19.712 214.755 20.0267 214.553 20.432C214.35 20.8267 214.249 21.2747 214.249 21.776C214.249 22.2773 214.35 22.7253 214.553 23.12C214.755 23.5147 215.038 23.8293 215.401 24.064C215.774 24.2987 216.19 24.416 216.649 24.416ZM226.569 29.68C225.94 29.68 225.31 29.584 224.681 29.392C224.062 29.2 223.561 28.9493 223.177 28.64L223.881 27.184C224.105 27.344 224.356 27.4827 224.633 27.6C224.91 27.7173 225.204 27.808 225.513 27.872C225.833 27.936 226.148 27.968 226.457 27.968C227.022 27.968 227.492 27.8773 227.865 27.696C228.249 27.5253 228.537 27.2587 228.729 26.896C228.921 26.544 229.017 26.1013 229.017 25.568V24.016L229.305 24.128C229.241 24.4587 229.065 24.7733 228.777 25.072C228.489 25.3707 228.126 25.616 227.689 25.808C227.252 25.9893 226.804 26.08 226.345 26.08C225.545 26.08 224.836 25.8933 224.217 25.52C223.609 25.1467 223.124 24.64 222.761 24C222.409 23.3493 222.233 22.6027 222.233 21.76C222.233 20.9173 222.409 20.1707 222.761 19.52C223.113 18.8587 223.593 18.3413 224.201 17.968C224.82 17.584 225.513 17.392 226.281 17.392C226.601 17.392 226.91 17.4293 227.209 17.504C227.508 17.5787 227.78 17.6853 228.025 17.824C228.281 17.9627 228.51 18.1173 228.713 18.288C228.916 18.4587 229.081 18.64 229.209 18.832C229.337 19.024 229.417 19.2107 229.449 19.392L229.033 19.52L229.065 17.568H231.001V25.424C231.001 26.1067 230.9 26.7093 230.697 27.232C230.494 27.7547 230.201 28.1973 229.817 28.56C229.433 28.9333 228.969 29.2107 228.425 29.392C227.881 29.584 227.262 29.68 226.569 29.68ZM226.649 24.4C227.129 24.4 227.55 24.288 227.913 24.064C228.286 23.84 228.574 23.5307 228.777 23.136C228.98 22.7413 229.081 22.288 229.081 21.776C229.081 21.2533 228.974 20.7947 228.761 20.4C228.558 19.9947 228.276 19.68 227.913 19.456C227.55 19.232 227.129 19.12 226.649 19.12C226.169 19.12 225.748 19.2373 225.385 19.472C225.022 19.696 224.734 20.0107 224.521 20.416C224.318 20.8107 224.217 21.264 224.217 21.776C224.217 22.2773 224.318 22.7307 224.521 23.136C224.734 23.5307 225.022 23.84 225.385 24.064C225.748 24.288 226.169 24.4 226.649 24.4ZM233.293 26V14.16H235.277V26H233.293ZM241.385 26.16C240.5 26.16 239.716 25.9733 239.033 25.6C238.361 25.2267 237.833 24.72 237.449 24.08C237.076 23.4293 236.889 22.688 236.889 21.856C236.889 21.1947 236.996 20.592 237.209 20.048C237.423 19.504 237.716 19.0347 238.089 18.64C238.473 18.2347 238.927 17.9253 239.449 17.712C239.983 17.488 240.564 17.376 241.193 17.376C241.748 17.376 242.265 17.4827 242.745 17.696C243.225 17.9093 243.641 18.2027 243.993 18.576C244.345 18.9387 244.612 19.376 244.793 19.888C244.985 20.3893 245.076 20.9387 245.065 21.536L245.049 22.224H238.217L237.849 20.88H243.401L243.145 21.152V20.8C243.113 20.4693 243.007 20.1813 242.825 19.936C242.644 19.68 242.409 19.4827 242.121 19.344C241.844 19.1947 241.535 19.12 241.193 19.12C240.671 19.12 240.228 19.2213 239.865 19.424C239.513 19.6267 239.247 19.92 239.065 20.304C238.884 20.6773 238.793 21.1467 238.793 21.712C238.793 22.256 238.905 22.7307 239.129 23.136C239.364 23.5413 239.689 23.856 240.105 24.08C240.532 24.2933 241.028 24.4 241.593 24.4C241.988 24.4 242.351 24.336 242.681 24.208C243.012 24.08 243.369 23.8507 243.753 23.52L244.729 24.88C244.441 25.1467 244.111 25.376 243.737 25.568C243.375 25.7493 242.991 25.8933 242.585 26C242.18 26.1067 241.78 26.16 241.385 26.16Z" fill="#DE177C"/>
</svg>
