<svg width="62" height="62" viewBox="0 0 62 62" fill="none" xmlns="http://www.w3.org/2000/svg">
<g filter="url(#filter0_b_131_727)">
<circle cx="31" cy="31" r="31" fill="#D9D9D9" fill-opacity="0.21"/>
</g>
<path d="M10.104 34.504V32.008H22.128V34.504H10.104ZM14.688 39.016V27.376H17.52V39.016H14.688ZM25.1706 40L24.3786 38.032L29.4186 32.392C29.7066 32.104 30.0026 31.776 30.3066 31.408C30.6106 31.024 30.8986 30.632 31.1706 30.232C31.4586 29.816 31.6906 29.416 31.8666 29.032C32.0426 28.632 32.1306 28.264 32.1306 27.928C32.1306 27.496 32.0346 27.12 31.8426 26.8C31.6666 26.48 31.4106 26.232 31.0746 26.056C30.7386 25.88 30.3226 25.792 29.8266 25.792C29.3946 25.792 28.9706 25.92 28.5546 26.176C28.1546 26.416 27.7786 26.768 27.4266 27.232C27.0906 27.68 26.8106 28.216 26.5866 28.84L24.2346 27.448C24.5226 26.52 24.9546 25.72 25.5306 25.048C26.1226 24.36 26.8106 23.832 27.5946 23.464C28.3946 23.096 29.2586 22.912 30.1866 22.912C31.1466 22.912 32.0026 23.112 32.7546 23.512C33.5066 23.912 34.0986 24.464 34.5306 25.168C34.9786 25.872 35.2026 26.696 35.2026 27.64C35.2026 27.992 35.1626 28.36 35.0826 28.744C35.0026 29.112 34.8746 29.504 34.6986 29.92C34.5386 30.32 34.3226 30.744 34.0506 31.192C33.7786 31.624 33.4506 32.08 33.0666 32.56C32.6986 33.04 32.2746 33.544 31.7946 34.072L27.9786 38.224L27.4986 37.12H35.8026V40H25.1706ZM44.3303 40V26.44L45.4823 26.56L39.7703 33.544L39.5063 33.112H50.1863V35.824H37.8263L36.5303 33.328L44.8823 23.152H47.3303V40H44.3303Z" fill="#141414"/>
<defs>
<filter id="filter0_b_131_727" x="-4" y="-4" width="70" height="70" filterUnits="userSpaceOnUse" color-interpolation-filters="sRGB">
<feFlood flood-opacity="0" result="BackgroundImageFix"/>
<feGaussianBlur in="BackgroundImageFix" stdDeviation="2"/>
<feComposite in2="SourceAlpha" operator="in" result="effect1_backgroundBlur_131_727"/>
<feBlend mode="normal" in="SourceGraphic" in2="effect1_backgroundBlur_131_727" result="shape"/>
</filter>
</defs>
</svg>
