<svg width="31" height="31" viewBox="0 0 31 31" fill="none" xmlns="http://www.w3.org/2000/svg">
<circle cx="15.5" cy="15.5" r="15" fill="#EAB0CD" stroke="#DE177C"/>
<path d="M12.296 21L11.768 19.688L15.128 15.928C15.32 15.736 15.5173 15.5173 15.72 15.272C15.9227 15.016 16.1147 14.7547 16.296 14.488C16.488 14.2107 16.6427 13.944 16.76 13.688C16.8773 13.4213 16.936 13.176 16.936 12.952C16.936 12.664 16.872 12.4133 16.744 12.2C16.6267 11.9867 16.456 11.8213 16.232 11.704C16.008 11.5867 15.7307 11.528 15.4 11.528C15.112 11.528 14.8293 11.6133 14.552 11.784C14.2853 11.944 14.0347 12.1787 13.8 12.488C13.576 12.7867 13.3893 13.144 13.24 13.56L11.672 12.632C11.864 12.0133 12.152 11.48 12.536 11.032C12.9307 10.5733 13.3893 10.2213 13.912 9.976C14.4453 9.73067 15.0213 9.608 15.64 9.608C16.28 9.608 16.8507 9.74133 17.352 10.008C17.8533 10.2747 18.248 10.6427 18.536 11.112C18.8347 11.5813 18.984 12.1307 18.984 12.76C18.984 12.9947 18.9573 13.24 18.904 13.496C18.8507 13.7413 18.7653 14.0027 18.648 14.28C18.5413 14.5467 18.3973 14.8293 18.216 15.128C18.0347 15.416 17.816 15.72 17.56 16.04C17.3147 16.36 17.032 16.696 16.712 17.048L14.168 19.816L13.848 19.08H19.384V21H12.296Z" fill="black"/>
</svg>
