<svg width="193" height="24" viewBox="0 0 193 24" fill="none" xmlns="http://www.w3.org/2000/svg">
<rect width="24" height="24" rx="4" fill="#949090"/>
<path d="M34.647 17V7.2H38.483C39.0523 7.2 39.5656 7.33533 40.023 7.606C40.4896 7.86733 40.8583 8.22667 41.129 8.684C41.3996 9.14133 41.535 9.65933 41.535 10.238C41.535 10.7793 41.4043 11.2693 41.143 11.708C40.8816 12.1467 40.527 12.4967 40.079 12.758C39.631 13.01 39.127 13.136 38.567 13.136H35.739V17H34.647ZM40.625 17L38.161 12.688L39.211 12.324L41.927 17H40.625ZM35.739 12.072H38.665C39.0103 12.072 39.3136 11.9927 39.575 11.834C39.8363 11.6753 40.0416 11.4607 40.191 11.19C40.3403 10.91 40.415 10.5927 40.415 10.238C40.415 9.85533 40.3263 9.51467 40.149 9.216C39.9716 8.91733 39.7243 8.684 39.407 8.516C39.099 8.348 38.7443 8.264 38.343 8.264H35.739V12.072ZM46.4157 17.14C45.6877 17.14 45.039 16.9813 44.4697 16.664C43.9097 16.3467 43.471 15.9033 43.1537 15.334C42.8364 14.7647 42.6777 14.1113 42.6777 13.374C42.6777 12.8047 42.7664 12.2913 42.9437 11.834C43.121 11.3673 43.3684 10.9613 43.6857 10.616C44.0124 10.2707 44.3997 10.0047 44.8477 9.818C45.2957 9.622 45.781 9.524 46.3037 9.524C46.7984 9.524 47.2464 9.61267 47.6477 9.79C48.0584 9.96733 48.4084 10.2147 48.6977 10.532C48.9964 10.84 49.2204 11.2087 49.3697 11.638C49.519 12.0673 49.5844 12.5387 49.5657 13.052L49.5517 13.542H43.4617L43.3077 12.66H48.7537L48.5017 12.898V12.562C48.483 12.226 48.385 11.904 48.2077 11.596C48.0304 11.2787 47.7784 11.022 47.4517 10.826C47.1344 10.63 46.7517 10.532 46.3037 10.532C45.781 10.532 45.3284 10.6393 44.9457 10.854C44.563 11.0593 44.269 11.3673 44.0637 11.778C43.8584 12.1887 43.7557 12.6973 43.7557 13.304C43.7557 13.8827 43.8677 14.3867 44.0917 14.816C44.3157 15.236 44.633 15.5627 45.0437 15.796C45.4637 16.0293 45.9677 16.146 46.5557 16.146C46.901 16.146 47.2417 16.09 47.5777 15.978C47.923 15.8567 48.301 15.6233 48.7117 15.278L49.2577 16.034C49.043 16.2487 48.7864 16.44 48.4877 16.608C48.189 16.7667 47.8624 16.8973 47.5077 17C47.153 17.0933 46.789 17.14 46.4157 17.14ZM51.043 17V9.692H52.093L52.121 11.358L51.911 11.428C51.9857 11.148 52.107 10.896 52.275 10.672C52.4524 10.4387 52.6624 10.238 52.905 10.07C53.1477 9.902 53.4137 9.776 53.703 9.692C53.9924 9.59867 54.2957 9.552 54.613 9.552C54.9957 9.552 55.3364 9.61733 55.635 9.748C55.943 9.86933 56.1997 10.084 56.405 10.392C56.6197 10.6907 56.783 11.0873 56.895 11.582L56.643 11.456L56.741 11.218C56.8344 11.0033 56.9697 10.798 57.147 10.602C57.3337 10.3967 57.5437 10.2147 57.777 10.056C58.0197 9.89733 58.281 9.776 58.561 9.692C58.8504 9.59867 59.1444 9.552 59.443 9.552C59.9564 9.552 60.3904 9.664 60.745 9.888C61.0997 10.1027 61.3657 10.434 61.543 10.882C61.7297 11.33 61.823 11.8993 61.823 12.59V17H60.745V12.646C60.745 12.1607 60.6844 11.764 60.563 11.456C60.4417 11.148 60.2597 10.9193 60.017 10.77C59.7837 10.6113 59.485 10.532 59.121 10.532C58.8037 10.532 58.5097 10.588 58.239 10.7C57.9777 10.8027 57.749 10.952 57.553 11.148C57.3664 11.3347 57.217 11.5493 57.105 11.792C57.0024 12.0347 56.951 12.296 56.951 12.576V17H55.887V12.632C55.887 12.1653 55.8217 11.778 55.691 11.47C55.5697 11.162 55.3877 10.9287 55.145 10.77C54.9024 10.6113 54.6037 10.532 54.249 10.532C53.941 10.532 53.6564 10.588 53.395 10.7C53.1337 10.8027 52.905 10.9473 52.709 11.134C52.5224 11.3207 52.373 11.5353 52.261 11.778C52.1584 12.0207 52.107 12.282 52.107 12.562V17H51.043ZM67.0329 17.14C66.3049 17.14 65.6562 16.9813 65.0869 16.664C64.5269 16.3467 64.0882 15.9033 63.7709 15.334C63.4536 14.7647 63.2949 14.1113 63.2949 13.374C63.2949 12.8047 63.3836 12.2913 63.5609 11.834C63.7382 11.3673 63.9856 10.9613 64.3029 10.616C64.6296 10.2707 65.0169 10.0047 65.4649 9.818C65.9129 9.622 66.3982 9.524 66.9209 9.524C67.4156 9.524 67.8636 9.61267 68.2649 9.79C68.6756 9.96733 69.0256 10.2147 69.3149 10.532C69.6136 10.84 69.8376 11.2087 69.9869 11.638C70.1362 12.0673 70.2016 12.5387 70.1829 13.052L70.1689 13.542H64.0789L63.9249 12.66H69.3709L69.1189 12.898V12.562C69.1002 12.226 69.0022 11.904 68.8249 11.596C68.6476 11.2787 68.3956 11.022 68.0689 10.826C67.7516 10.63 67.3689 10.532 66.9209 10.532C66.3982 10.532 65.9456 10.6393 65.5629 10.854C65.1802 11.0593 64.8862 11.3673 64.6809 11.778C64.4756 12.1887 64.3729 12.6973 64.3729 13.304C64.3729 13.8827 64.4849 14.3867 64.7089 14.816C64.9329 15.236 65.2502 15.5627 65.6609 15.796C66.0809 16.0293 66.5849 16.146 67.1729 16.146C67.5182 16.146 67.8589 16.09 68.1949 15.978C68.5402 15.8567 68.9182 15.6233 69.3289 15.278L69.8749 16.034C69.6602 16.2487 69.4036 16.44 69.1049 16.608C68.8062 16.7667 68.4796 16.8973 68.1249 17C67.7702 17.0933 67.4062 17.14 67.0329 17.14ZM71.6602 17V9.692H72.7102L72.7382 11.358L72.5282 11.428C72.6029 11.148 72.7242 10.896 72.8922 10.672C73.0696 10.4387 73.2796 10.238 73.5222 10.07C73.7649 9.902 74.0309 9.776 74.3202 9.692C74.6096 9.59867 74.9129 9.552 75.2302 9.552C75.6129 9.552 75.9536 9.61733 76.2522 9.748C76.5602 9.86933 76.8169 10.084 77.0222 10.392C77.2369 10.6907 77.4002 11.0873 77.5122 11.582L77.2602 11.456L77.3582 11.218C77.4516 11.0033 77.5869 10.798 77.7642 10.602C77.9509 10.3967 78.1609 10.2147 78.3942 10.056C78.6369 9.89733 78.8982 9.776 79.1782 9.692C79.4676 9.59867 79.7616 9.552 80.0602 9.552C80.5736 9.552 81.0076 9.664 81.3622 9.888C81.7169 10.1027 81.9829 10.434 82.1602 10.882C82.3469 11.33 82.4402 11.8993 82.4402 12.59V17H81.3622V12.646C81.3622 12.1607 81.3016 11.764 81.1802 11.456C81.0589 11.148 80.8769 10.9193 80.6342 10.77C80.4009 10.6113 80.1022 10.532 79.7382 10.532C79.4209 10.532 79.1269 10.588 78.8562 10.7C78.5949 10.8027 78.3662 10.952 78.1702 11.148C77.9836 11.3347 77.8342 11.5493 77.7222 11.792C77.6196 12.0347 77.5682 12.296 77.5682 12.576V17H76.5042V12.632C76.5042 12.1653 76.4389 11.778 76.3082 11.47C76.1869 11.162 76.0049 10.9287 75.7622 10.77C75.5196 10.6113 75.2209 10.532 74.8662 10.532C74.5582 10.532 74.2736 10.588 74.0122 10.7C73.7509 10.8027 73.5222 10.9473 73.3262 11.134C73.1396 11.3207 72.9902 11.5353 72.8782 11.778C72.7756 12.0207 72.7242 12.282 72.7242 12.562V17H71.6602ZM88.1401 17.14C87.7947 17.14 87.4587 17.0887 87.1321 16.986C86.8054 16.874 86.5067 16.7247 86.2361 16.538C85.9747 16.3513 85.7507 16.1367 85.5641 15.894C85.3867 15.6513 85.2654 15.3993 85.2001 15.138L85.5081 15.152L85.4661 16.986H84.4301V6.64H85.4801V11.442L85.2701 11.498C85.3354 11.2367 85.4521 10.9893 85.6201 10.756C85.7974 10.5133 86.0167 10.3033 86.2781 10.126C86.5394 9.93933 86.8241 9.79467 87.1321 9.692C87.4494 9.58933 87.7761 9.538 88.1121 9.538C88.7654 9.538 89.3487 9.70133 89.8621 10.028C90.3847 10.3547 90.8001 10.8027 91.1081 11.372C91.4161 11.9413 91.5701 12.5947 91.5701 13.332C91.5701 14.0693 91.4207 14.7273 91.1221 15.306C90.8234 15.8753 90.4127 16.3233 89.8901 16.65C89.3767 16.9767 88.7934 17.14 88.1401 17.14ZM87.9721 16.146C88.4667 16.146 88.9054 16.0247 89.2881 15.782C89.6707 15.53 89.9694 15.194 90.1841 14.774C90.4081 14.3447 90.5201 13.864 90.5201 13.332C90.5201 12.7907 90.4081 12.31 90.1841 11.89C89.9694 11.47 89.6707 11.1387 89.2881 10.896C88.9054 10.6533 88.4667 10.532 87.9721 10.532C87.4774 10.532 87.0387 10.6533 86.6561 10.896C86.2734 11.1387 85.9701 11.47 85.7461 11.89C85.5314 12.31 85.4241 12.7907 85.4241 13.332C85.4241 13.8733 85.5314 14.3587 85.7461 14.788C85.9701 15.208 86.2734 15.5393 86.6561 15.782C87.0387 16.0247 87.4774 16.146 87.9721 16.146ZM96.318 17.14C95.59 17.14 94.9414 16.9813 94.372 16.664C93.812 16.3467 93.3734 15.9033 93.056 15.334C92.7387 14.7647 92.58 14.1113 92.58 13.374C92.58 12.8047 92.6687 12.2913 92.846 11.834C93.0234 11.3673 93.2707 10.9613 93.588 10.616C93.9147 10.2707 94.302 10.0047 94.7501 9.818C95.198 9.622 95.6834 9.524 96.2061 9.524C96.7007 9.524 97.1487 9.61267 97.5501 9.79C97.9607 9.96733 98.3107 10.2147 98.6001 10.532C98.8987 10.84 99.1227 11.2087 99.272 11.638C99.4214 12.0673 99.4867 12.5387 99.468 13.052L99.454 13.542H93.364L93.21 12.66H98.6561L98.4041 12.898V12.562C98.3854 12.226 98.2874 11.904 98.1101 11.596C97.9327 11.2787 97.6807 11.022 97.354 10.826C97.0367 10.63 96.6541 10.532 96.2061 10.532C95.6834 10.532 95.2307 10.6393 94.848 10.854C94.4654 11.0593 94.1714 11.3673 93.966 11.778C93.7607 12.1887 93.658 12.6973 93.658 13.304C93.658 13.8827 93.77 14.3867 93.994 14.816C94.218 15.236 94.5354 15.5627 94.946 15.796C95.366 16.0293 95.87 16.146 96.4581 16.146C96.8034 16.146 97.1441 16.09 97.48 15.978C97.8254 15.8567 98.2034 15.6233 98.614 15.278L99.1601 16.034C98.9454 16.2487 98.6887 16.44 98.3901 16.608C98.0914 16.7667 97.7647 16.8973 97.41 17C97.0554 17.0933 96.6914 17.14 96.318 17.14ZM100.959 17V9.692H102.009L102.037 11.638L101.925 11.372C102.028 11.0453 102.191 10.742 102.415 10.462C102.649 10.182 102.924 9.958 103.241 9.79C103.559 9.622 103.909 9.538 104.291 9.538C104.45 9.538 104.599 9.552 104.739 9.58C104.879 9.59867 104.996 9.62667 105.089 9.664L104.795 10.84C104.674 10.784 104.548 10.7467 104.417 10.728C104.296 10.7 104.179 10.686 104.067 10.686C103.75 10.686 103.465 10.742 103.213 10.854C102.961 10.966 102.747 11.1247 102.569 11.33C102.392 11.526 102.257 11.7547 102.163 12.016C102.07 12.2773 102.023 12.5573 102.023 12.856V17H100.959ZM110.092 17V9.692H111.142L111.17 11.358L110.96 11.428C111.035 11.148 111.156 10.896 111.324 10.672C111.501 10.4387 111.711 10.238 111.954 10.07C112.197 9.902 112.463 9.776 112.752 9.692C113.041 9.59867 113.345 9.552 113.662 9.552C114.045 9.552 114.385 9.61733 114.684 9.748C114.992 9.86933 115.249 10.084 115.454 10.392C115.669 10.6907 115.832 11.0873 115.944 11.582L115.692 11.456L115.79 11.218C115.883 11.0033 116.019 10.798 116.196 10.602C116.383 10.3967 116.593 10.2147 116.826 10.056C117.069 9.89733 117.33 9.776 117.61 9.692C117.899 9.59867 118.193 9.552 118.492 9.552C119.005 9.552 119.439 9.664 119.794 9.888C120.149 10.1027 120.415 10.434 120.592 10.882C120.779 11.33 120.872 11.8993 120.872 12.59V17H119.794V12.646C119.794 12.1607 119.733 11.764 119.612 11.456C119.491 11.148 119.309 10.9193 119.066 10.77C118.833 10.6113 118.534 10.532 118.17 10.532C117.853 10.532 117.559 10.588 117.288 10.7C117.027 10.8027 116.798 10.952 116.602 11.148C116.415 11.3347 116.266 11.5493 116.154 11.792C116.051 12.0347 116 12.296 116 12.576V17H114.936V12.632C114.936 12.1653 114.871 11.778 114.74 11.47C114.619 11.162 114.437 10.9287 114.194 10.77C113.951 10.6113 113.653 10.532 113.298 10.532C112.99 10.532 112.705 10.588 112.444 10.7C112.183 10.8027 111.954 10.9473 111.758 11.134C111.571 11.3207 111.422 11.5353 111.31 11.778C111.207 12.0207 111.156 12.282 111.156 12.562V17H110.092ZM126.082 17.14C125.354 17.14 124.705 16.9813 124.136 16.664C123.576 16.3467 123.137 15.9033 122.82 15.334C122.502 14.7647 122.344 14.1113 122.344 13.374C122.344 12.8047 122.432 12.2913 122.61 11.834C122.787 11.3673 123.034 10.9613 123.352 10.616C123.678 10.2707 124.066 10.0047 124.514 9.818C124.962 9.622 125.447 9.524 125.97 9.524C126.464 9.524 126.912 9.61267 127.314 9.79C127.724 9.96733 128.074 10.2147 128.364 10.532C128.662 10.84 128.886 11.2087 129.036 11.638C129.185 12.0673 129.25 12.5387 129.232 13.052L129.218 13.542H123.128L122.974 12.66H128.42L128.168 12.898V12.562C128.149 12.226 128.051 11.904 127.874 11.596C127.696 11.2787 127.444 11.022 127.118 10.826C126.8 10.63 126.418 10.532 125.97 10.532C125.447 10.532 124.994 10.6393 124.612 10.854C124.229 11.0593 123.935 11.3673 123.73 11.778C123.524 12.1887 123.422 12.6973 123.422 13.304C123.422 13.8827 123.534 14.3867 123.758 14.816C123.982 15.236 124.299 15.5627 124.71 15.796C125.13 16.0293 125.634 16.146 126.222 16.146C126.567 16.146 126.908 16.09 127.244 15.978C127.589 15.8567 127.967 15.6233 128.378 15.278L128.924 16.034C128.709 16.2487 128.452 16.44 128.154 16.608C127.855 16.7667 127.528 16.8973 127.174 17C126.819 17.0933 126.455 17.14 126.082 17.14Z" fill="#3C3C3C"/>
</svg>
