<svg width="31" height="31" viewBox="0 0 31 31" fill="none" xmlns="http://www.w3.org/2000/svg">
<circle cx="15.5" cy="15.5" r="15" fill="#EAB0CD" stroke="#DE177C"/>
<path d="M15.224 21.16C14.392 21.16 13.6667 20.9787 13.048 20.616C12.4293 20.2427 11.8587 19.6133 11.336 18.728L12.904 17.736C13.1493 18.1307 13.4 18.4507 13.656 18.696C13.9227 18.9307 14.1893 19.1067 14.456 19.224C14.7333 19.3307 15.0267 19.384 15.336 19.384C15.688 19.384 16.008 19.2987 16.296 19.128C16.5947 18.9573 16.8293 18.7227 17 18.424C17.1813 18.1253 17.272 17.784 17.272 17.4C17.272 17.016 17.1973 16.6907 17.048 16.424C16.9093 16.1573 16.7013 15.9547 16.424 15.816C16.1573 15.6667 15.832 15.592 15.448 15.592C15.2773 15.592 15.096 15.6133 14.904 15.656C14.712 15.688 14.5093 15.7413 14.296 15.816C14.0827 15.88 13.848 15.96 13.592 16.056L13.08 14.696L16.264 11.176L16.744 11.64L12.024 11.608V9.768H18.6L18.984 10.536L15.304 14.552L14.824 14.024C14.9093 13.9813 15.048 13.944 15.24 13.912C15.4427 13.8693 15.6187 13.848 15.768 13.848C16.2373 13.848 16.6853 13.9387 17.112 14.12C17.5387 14.2907 17.9067 14.536 18.216 14.856C18.536 15.176 18.7867 15.5493 18.968 15.976C19.1493 16.392 19.24 16.8453 19.24 17.336C19.24 18.072 19.0587 18.728 18.696 19.304C18.344 19.8693 17.864 20.3227 17.256 20.664C16.648 20.9947 15.9707 21.16 15.224 21.16Z" fill="black"/>
</svg>
