<svg width="310" height="22" viewBox="0 0 310 22" fill="none" xmlns="http://www.w3.org/2000/svg">
<path d="M0.35 16L4.102 6.2H5.348L9.072 16H7.882L5.488 9.644C5.42267 9.46667 5.348 9.26133 5.264 9.028C5.18933 8.78533 5.10533 8.538 5.012 8.286C4.928 8.02467 4.844 7.77267 4.76 7.53C4.68533 7.28733 4.61533 7.07267 4.55 6.886H4.83C4.75533 7.11933 4.676 7.35733 4.592 7.6C4.51733 7.83333 4.438 8.07133 4.354 8.314C4.27 8.54733 4.186 8.78067 4.102 9.014C4.018 9.24733 3.934 9.48067 3.85 9.714L1.47 16H0.35ZM1.946 13.298L2.352 12.234H6.986L7.434 13.298H1.946ZM10.4699 16V5.64H11.5199V16H10.4699ZM13.5865 16V8.692H14.6365L14.6645 10.638L14.5525 10.372C14.6551 10.0453 14.8185 9.742 15.0425 9.462C15.2758 9.182 15.5511 8.958 15.8685 8.79C16.1858 8.622 16.5358 8.538 16.9185 8.538C17.0771 8.538 17.2265 8.552 17.3665 8.58C17.5065 8.59867 17.6231 8.62667 17.7165 8.664L17.4225 9.84C17.3011 9.784 17.1751 9.74667 17.0445 9.728C16.9231 9.7 16.8065 9.686 16.6945 9.686C16.3771 9.686 16.0925 9.742 15.8405 9.854C15.5885 9.966 15.3738 10.1247 15.1965 10.33C15.0191 10.526 14.8838 10.7547 14.7905 11.016C14.6971 11.2773 14.6505 11.5573 14.6505 11.856V16H13.5865ZM21.7147 16.14C20.9867 16.14 20.338 15.9813 19.7687 15.664C19.2087 15.3467 18.77 14.9033 18.4527 14.334C18.1353 13.7647 17.9767 13.1113 17.9767 12.374C17.9767 11.8047 18.0653 11.2913 18.2427 10.834C18.42 10.3673 18.6673 9.96133 18.9847 9.616C19.3113 9.27067 19.6987 9.00467 20.1467 8.818C20.5947 8.622 21.08 8.524 21.6027 8.524C22.0973 8.524 22.5453 8.61267 22.9467 8.79C23.3573 8.96733 23.7073 9.21467 23.9967 9.532C24.2953 9.84 24.5193 10.2087 24.6687 10.638C24.818 11.0673 24.8833 11.5387 24.8647 12.052L24.8507 12.542H18.7607L18.6067 11.66H24.0527L23.8007 11.898V11.562C23.782 11.226 23.684 10.904 23.5067 10.596C23.3293 10.2787 23.0773 10.022 22.7507 9.826C22.4333 9.63 22.0507 9.532 21.6027 9.532C21.08 9.532 20.6273 9.63933 20.2447 9.854C19.862 10.0593 19.568 10.3673 19.3627 10.778C19.1573 11.1887 19.0547 11.6973 19.0547 12.304C19.0547 12.8827 19.1667 13.3867 19.3907 13.816C19.6147 14.236 19.932 14.5627 20.3427 14.796C20.7627 15.0293 21.2667 15.146 21.8547 15.146C22.2 15.146 22.5407 15.09 22.8767 14.978C23.222 14.8567 23.6 14.6233 24.0107 14.278L24.5567 15.034C24.342 15.2487 24.0853 15.44 23.7867 15.608C23.488 15.7667 23.1613 15.8973 22.8067 16C22.452 16.0933 22.088 16.14 21.7147 16.14ZM29.212 16.14C28.5773 16.14 28.0033 15.9767 27.49 15.65C26.9767 15.314 26.5707 14.8613 26.272 14.292C25.9733 13.7133 25.824 13.06 25.824 12.332C25.824 11.5947 25.978 10.9413 26.286 10.372C26.594 9.80267 27.0047 9.35467 27.518 9.028C28.0407 8.70133 28.624 8.538 29.268 8.538C29.6507 8.538 30.0053 8.594 30.332 8.706C30.6587 8.818 30.948 8.97667 31.2 9.182C31.4613 9.378 31.676 9.61133 31.844 9.882C32.0213 10.1433 32.1427 10.428 32.208 10.736L31.9 10.582L31.942 8.692H32.992V16H31.928V14.208L32.208 14.026C32.1427 14.306 32.0167 14.5767 31.83 14.838C31.6433 15.09 31.4147 15.314 31.144 15.51C30.8827 15.706 30.584 15.86 30.248 15.972C29.9213 16.084 29.576 16.14 29.212 16.14ZM29.45 15.132C29.9353 15.132 30.3693 15.0153 30.752 14.782C31.1347 14.5393 31.4333 14.208 31.648 13.788C31.872 13.3587 31.984 12.8733 31.984 12.332C31.984 11.7907 31.872 11.31 31.648 10.89C31.4333 10.47 31.1347 10.1387 30.752 9.896C30.3693 9.65333 29.9353 9.532 29.45 9.532C28.9553 9.532 28.5167 9.65333 28.134 9.896C27.7607 10.1387 27.462 10.47 27.238 10.89C27.0233 11.31 26.916 11.7907 26.916 12.332C26.916 12.864 27.0233 13.3447 27.238 13.774C27.4527 14.194 27.7513 14.5253 28.134 14.768C28.5167 15.0107 28.9553 15.132 29.45 15.132ZM38.0056 16.14C37.343 16.14 36.7456 15.9767 36.2136 15.65C35.691 15.3233 35.2756 14.8753 34.9676 14.306C34.669 13.7273 34.5196 13.074 34.5196 12.346C34.5196 11.6087 34.6736 10.9553 34.9816 10.386C35.2896 9.80733 35.705 9.35467 36.2276 9.028C36.7503 8.70133 37.3383 8.538 37.9916 8.538C38.3556 8.538 38.7056 8.594 39.0416 8.706C39.387 8.818 39.695 8.97667 39.9656 9.182C40.2363 9.378 40.4603 9.60667 40.6376 9.868C40.815 10.12 40.9223 10.386 40.9596 10.666L40.6376 10.554V5.64H41.6876V16H40.6516L40.6236 14.18L40.8896 14.082C40.8523 14.3433 40.745 14.6 40.5676 14.852C40.3996 15.0947 40.185 15.314 39.9236 15.51C39.6623 15.706 39.3636 15.86 39.0276 15.972C38.701 16.084 38.3603 16.14 38.0056 16.14ZM38.1596 15.174C38.645 15.174 39.079 15.0527 39.4616 14.81C39.8443 14.5673 40.143 14.2313 40.3576 13.802C40.5816 13.3727 40.6936 12.8827 40.6936 12.332C40.6936 11.7813 40.5816 11.296 40.3576 10.876C40.143 10.4467 39.8443 10.1107 39.4616 9.868C39.079 9.616 38.645 9.49 38.1596 9.49C37.6556 9.49 37.2123 9.616 36.8296 9.868C36.4563 10.1107 36.1576 10.4467 35.9336 10.876C35.719 11.296 35.6116 11.7813 35.6116 12.332C35.6116 12.8733 35.719 13.3587 35.9336 13.788C36.1483 14.2173 36.447 14.558 36.8296 14.81C37.2123 15.0527 37.6556 15.174 38.1596 15.174ZM44.9649 19.22L46.3789 15.776L46.4769 16.77L42.8089 8.692H43.9989L46.5049 14.292C46.5796 14.4413 46.6543 14.6187 46.7289 14.824C46.8036 15.02 46.8736 15.216 46.9389 15.412L46.5469 15.37C46.6123 15.2113 46.6729 15.048 46.7289 14.88C46.7943 14.712 46.8549 14.5487 46.9109 14.39L49.1089 8.692H50.3129L47.3589 16L46.0989 19.22H44.9649ZM55.3404 16V5.64H56.3904V10.288L56.1804 10.498C56.283 10.1153 56.4744 9.77933 56.7544 9.49C57.0344 9.19133 57.361 8.958 57.7344 8.79C58.117 8.622 58.5044 8.538 58.8964 8.538C59.4564 8.538 59.923 8.64533 60.2964 8.86C60.6697 9.07467 60.945 9.406 61.1224 9.854C61.309 10.302 61.4024 10.8713 61.4024 11.562V16H60.3384V11.618C60.3384 11.1327 60.273 10.736 60.1424 10.428C60.021 10.1107 59.8297 9.87733 59.5684 9.728C59.307 9.57867 58.9804 9.50867 58.5884 9.518C58.2804 9.518 57.991 9.574 57.7204 9.686C57.4497 9.78867 57.2164 9.93333 57.0204 10.12C56.8244 10.3067 56.6704 10.5213 56.5584 10.764C56.4464 11.0067 56.3904 11.268 56.3904 11.548V16H55.8724C55.807 16 55.7324 16 55.6484 16C55.5644 16 55.4617 16 55.3404 16ZM66.2628 16.14C65.6281 16.14 65.0541 15.9767 64.5408 15.65C64.0274 15.314 63.6214 14.8613 63.3228 14.292C63.0241 13.7133 62.8748 13.06 62.8748 12.332C62.8748 11.5947 63.0288 10.9413 63.3368 10.372C63.6448 9.80267 64.0554 9.35467 64.5688 9.028C65.0914 8.70133 65.6748 8.538 66.3188 8.538C66.7014 8.538 67.0561 8.594 67.3828 8.706C67.7094 8.818 67.9988 8.97667 68.2508 9.182C68.5121 9.378 68.7268 9.61133 68.8948 9.882C69.0721 10.1433 69.1934 10.428 69.2588 10.736L68.9508 10.582L68.9928 8.692H70.0428V16H68.9788V14.208L69.2588 14.026C69.1934 14.306 69.0674 14.5767 68.8808 14.838C68.6941 15.09 68.4654 15.314 68.1948 15.51C67.9334 15.706 67.6348 15.86 67.2988 15.972C66.9721 16.084 66.6268 16.14 66.2628 16.14ZM66.5008 15.132C66.9861 15.132 67.4201 15.0153 67.8028 14.782C68.1854 14.5393 68.4841 14.208 68.6988 13.788C68.9228 13.3587 69.0348 12.8733 69.0348 12.332C69.0348 11.7907 68.9228 11.31 68.6988 10.89C68.4841 10.47 68.1854 10.1387 67.8028 9.896C67.4201 9.65333 66.9861 9.532 66.5008 9.532C66.0061 9.532 65.5674 9.65333 65.1848 9.896C64.8114 10.1387 64.5128 10.47 64.2888 10.89C64.0741 11.31 63.9668 11.7907 63.9668 12.332C63.9668 12.864 64.0741 13.3447 64.2888 13.774C64.5034 14.194 64.8021 14.5253 65.1848 14.768C65.5674 15.0107 66.0061 15.132 66.5008 15.132ZM74.1923 16L71.1123 8.692H72.2743L74.7103 14.67L74.4303 14.824L77.1043 8.692H78.2243L74.9483 16H74.1923ZM82.4725 16.14C81.7445 16.14 81.0958 15.9813 80.5265 15.664C79.9665 15.3467 79.5278 14.9033 79.2105 14.334C78.8931 13.7647 78.7345 13.1113 78.7345 12.374C78.7345 11.8047 78.8231 11.2913 79.0005 10.834C79.1778 10.3673 79.4251 9.96133 79.7425 9.616C80.0691 9.27067 80.4565 9.00467 80.9045 8.818C81.3525 8.622 81.8378 8.524 82.3605 8.524C82.8551 8.524 83.3031 8.61267 83.7045 8.79C84.1151 8.96733 84.4651 9.21467 84.7545 9.532C85.0531 9.84 85.2771 10.2087 85.4265 10.638C85.5758 11.0673 85.6411 11.5387 85.6225 12.052L85.6085 12.542H79.5185L79.3645 11.66H84.8105L84.5585 11.898V11.562C84.5398 11.226 84.4418 10.904 84.2645 10.596C84.0871 10.2787 83.8351 10.022 83.5085 9.826C83.1911 9.63 82.8085 9.532 82.3605 9.532C81.8378 9.532 81.3851 9.63933 81.0025 9.854C80.6198 10.0593 80.3258 10.3673 80.1205 10.778C79.9151 11.1887 79.8125 11.6973 79.8125 12.304C79.8125 12.8827 79.9245 13.3867 80.1485 13.816C80.3725 14.236 80.6898 14.5627 81.1005 14.796C81.5205 15.0293 82.0245 15.146 82.6125 15.146C82.9578 15.146 83.2985 15.09 83.6345 14.978C83.9798 14.8567 84.3578 14.6233 84.7685 14.278L85.3145 15.034C85.0998 15.2487 84.8431 15.44 84.5445 15.608C84.2458 15.7667 83.9191 15.8973 83.5645 16C83.2098 16.0933 82.8458 16.14 82.4725 16.14ZM93.8936 16.14C93.259 16.14 92.685 15.9767 92.1716 15.65C91.6583 15.314 91.2523 14.8613 90.9536 14.292C90.655 13.7133 90.5056 13.06 90.5056 12.332C90.5056 11.5947 90.6596 10.9413 90.9676 10.372C91.2756 9.80267 91.6863 9.35467 92.1996 9.028C92.7223 8.70133 93.3056 8.538 93.9496 8.538C94.3323 8.538 94.687 8.594 95.0136 8.706C95.3403 8.818 95.6296 8.97667 95.8816 9.182C96.143 9.378 96.3576 9.61133 96.5256 9.882C96.703 10.1433 96.8243 10.428 96.8896 10.736L96.5816 10.582L96.6236 8.692H97.6736V16H96.6096V14.208L96.8896 14.026C96.8243 14.306 96.6983 14.5767 96.5116 14.838C96.325 15.09 96.0963 15.314 95.8256 15.51C95.5643 15.706 95.2656 15.86 94.9296 15.972C94.603 16.084 94.2576 16.14 93.8936 16.14ZM94.1316 15.132C94.617 15.132 95.051 15.0153 95.4336 14.782C95.8163 14.5393 96.115 14.208 96.3296 13.788C96.5536 13.3587 96.6656 12.8733 96.6656 12.332C96.6656 11.7907 96.5536 11.31 96.3296 10.89C96.115 10.47 95.8163 10.1387 95.4336 9.896C95.051 9.65333 94.617 9.532 94.1316 9.532C93.637 9.532 93.1983 9.65333 92.8156 9.896C92.4423 10.1387 92.1436 10.47 91.9196 10.89C91.705 11.31 91.5976 11.7907 91.5976 12.332C91.5976 12.864 91.705 13.3447 91.9196 13.774C92.1343 14.194 92.433 14.5253 92.8156 14.768C93.1983 15.0107 93.637 15.132 94.1316 15.132ZM99.7193 16V8.692H100.755L100.797 10.218L100.629 10.288C100.723 9.97067 100.905 9.68133 101.175 9.42C101.446 9.15867 101.768 8.94867 102.141 8.79C102.524 8.622 102.916 8.538 103.317 8.538C103.859 8.538 104.311 8.64533 104.675 8.86C105.039 9.07467 105.315 9.406 105.501 9.854C105.688 10.302 105.781 10.8713 105.781 11.562V16H104.717V11.618C104.717 11.1327 104.652 10.736 104.521 10.428C104.4 10.1107 104.209 9.87733 103.947 9.728C103.686 9.57867 103.364 9.50867 102.981 9.518C102.664 9.518 102.37 9.574 102.099 9.686C101.829 9.78867 101.595 9.93333 101.399 10.12C101.203 10.3067 101.049 10.5213 100.937 10.764C100.825 11.0067 100.769 11.268 100.769 11.548V16H100.251C100.186 16 100.111 16 100.027 16C99.9433 16 99.8406 16 99.7193 16ZM114.566 16.14C113.931 16.14 113.357 15.9767 112.844 15.65C112.33 15.314 111.924 14.8613 111.626 14.292C111.327 13.7133 111.178 13.06 111.178 12.332C111.178 11.5947 111.332 10.9413 111.64 10.372C111.948 9.80267 112.358 9.35467 112.872 9.028C113.394 8.70133 113.978 8.538 114.622 8.538C115.004 8.538 115.359 8.594 115.686 8.706C116.012 8.818 116.302 8.97667 116.554 9.182C116.815 9.378 117.03 9.61133 117.198 9.882C117.375 10.1433 117.496 10.428 117.562 10.736L117.254 10.582L117.296 8.692H118.346V16H117.282V14.208L117.562 14.026C117.496 14.306 117.37 14.5767 117.184 14.838C116.997 15.09 116.768 15.314 116.498 15.51C116.236 15.706 115.938 15.86 115.602 15.972C115.275 16.084 114.93 16.14 114.566 16.14ZM114.803 15.132C115.289 15.132 115.723 15.0153 116.106 14.782C116.488 14.5393 116.787 14.208 117.002 13.788C117.226 13.3587 117.338 12.8733 117.338 12.332C117.338 11.7907 117.226 11.31 117.002 10.89C116.787 10.47 116.488 10.1387 116.106 9.896C115.723 9.65333 115.289 9.532 114.803 9.532C114.309 9.532 113.87 9.65333 113.488 9.896C113.114 10.1387 112.816 10.47 112.592 10.89C112.377 11.31 112.27 11.7907 112.27 12.332C112.27 12.864 112.377 13.3447 112.592 13.774C112.806 14.194 113.105 14.5253 113.488 14.768C113.87 15.0107 114.309 15.132 114.803 15.132ZM123.471 16.14C122.78 16.14 122.164 15.9767 121.623 15.65C121.082 15.314 120.652 14.8613 120.335 14.292C120.027 13.7133 119.873 13.06 119.873 12.332C119.873 11.604 120.027 10.9553 120.335 10.386C120.652 9.80733 121.082 9.35467 121.623 9.028C122.164 8.70133 122.785 8.538 123.485 8.538C124.11 8.538 124.68 8.664 125.193 8.916C125.706 9.15867 126.117 9.49933 126.425 9.938L125.809 10.694C125.632 10.4607 125.417 10.2553 125.165 10.078C124.922 9.90067 124.656 9.76533 124.367 9.672C124.087 9.56933 123.807 9.518 123.527 9.518C123.032 9.518 122.589 9.644 122.197 9.896C121.805 10.1387 121.492 10.47 121.259 10.89C121.035 11.31 120.923 11.7907 120.923 12.332C120.923 12.8733 121.035 13.3587 121.259 13.788C121.492 14.208 121.805 14.5393 122.197 14.782C122.589 15.0247 123.028 15.146 123.513 15.146C123.793 15.146 124.068 15.104 124.339 15.02C124.61 14.9267 124.866 14.796 125.109 14.628C125.352 14.46 125.576 14.25 125.781 13.998L126.397 14.754C126.08 15.174 125.655 15.51 125.123 15.762C124.591 16.014 124.04 16.14 123.471 16.14ZM130.84 16.14C130.15 16.14 129.534 15.9767 128.992 15.65C128.451 15.314 128.022 14.8613 127.704 14.292C127.396 13.7133 127.242 13.06 127.242 12.332C127.242 11.604 127.396 10.9553 127.704 10.386C128.022 9.80733 128.451 9.35467 128.992 9.028C129.534 8.70133 130.154 8.538 130.854 8.538C131.48 8.538 132.049 8.664 132.562 8.916C133.076 9.15867 133.486 9.49933 133.794 9.938L133.178 10.694C133.001 10.4607 132.786 10.2553 132.534 10.078C132.292 9.90067 132.026 9.76533 131.736 9.672C131.456 9.56933 131.176 9.518 130.896 9.518C130.402 9.518 129.958 9.644 129.566 9.896C129.174 10.1387 128.862 10.47 128.628 10.89C128.404 11.31 128.292 11.7907 128.292 12.332C128.292 12.8733 128.404 13.3587 128.628 13.788C128.862 14.208 129.174 14.5393 129.566 14.782C129.958 15.0247 130.397 15.146 130.882 15.146C131.162 15.146 131.438 15.104 131.708 15.02C131.979 14.9267 132.236 14.796 132.478 14.628C132.721 14.46 132.945 14.25 133.15 13.998L133.766 14.754C133.449 15.174 133.024 15.51 132.492 15.762C131.96 16.014 131.41 16.14 130.84 16.14ZM138.363 16.14C137.635 16.14 136.987 15.9767 136.417 15.65C135.857 15.3233 135.414 14.8707 135.087 14.292C134.77 13.7133 134.611 13.0553 134.611 12.318C134.611 11.59 134.77 10.9413 135.087 10.372C135.414 9.80267 135.857 9.35467 136.417 9.028C136.987 8.70133 137.635 8.538 138.363 8.538C139.082 8.538 139.721 8.70133 140.281 9.028C140.851 9.35467 141.294 9.80267 141.611 10.372C141.938 10.9413 142.101 11.59 142.101 12.318C142.101 13.0553 141.938 13.7133 141.611 14.292C141.294 14.8707 140.851 15.3233 140.281 15.65C139.721 15.9767 139.082 16.14 138.363 16.14ZM138.363 15.146C138.877 15.146 139.334 15.0247 139.735 14.782C140.137 14.53 140.449 14.194 140.673 13.774C140.897 13.3447 141.009 12.8593 141.009 12.318C141.009 11.7767 140.897 11.296 140.673 10.876C140.449 10.456 140.137 10.1293 139.735 9.896C139.334 9.65333 138.877 9.532 138.363 9.532C137.85 9.532 137.388 9.65333 136.977 9.896C136.576 10.1293 136.259 10.4607 136.025 10.89C135.801 11.31 135.694 11.786 135.703 12.318C135.694 12.8593 135.801 13.3447 136.025 13.774C136.259 14.194 136.576 14.53 136.977 14.782C137.388 15.0247 137.85 15.146 138.363 15.146ZM146.223 16.14C145.663 16.14 145.187 16.028 144.795 15.804C144.413 15.5707 144.119 15.2347 143.913 14.796C143.717 14.3573 143.619 13.8113 143.619 13.158V8.692H144.683V12.948C144.683 13.4427 144.749 13.858 144.879 14.194C145.019 14.5207 145.225 14.768 145.495 14.936C145.775 15.104 146.116 15.188 146.517 15.188C146.825 15.188 147.11 15.1367 147.371 15.034C147.633 14.922 147.861 14.7727 148.057 14.586C148.253 14.3993 148.407 14.18 148.519 13.928C148.631 13.676 148.687 13.41 148.687 13.13V8.692H149.737V16H148.701L148.659 14.46L148.827 14.376C148.715 14.7027 148.529 15.0013 148.267 15.272C148.006 15.5333 147.693 15.7433 147.329 15.902C146.975 16.0607 146.606 16.14 146.223 16.14ZM151.782 16V8.692H152.818L152.86 10.218L152.692 10.288C152.785 9.97067 152.967 9.68133 153.238 9.42C153.508 9.15867 153.83 8.94867 154.204 8.79C154.586 8.622 154.978 8.538 155.38 8.538C155.921 8.538 156.374 8.64533 156.738 8.86C157.102 9.07467 157.377 9.406 157.564 9.854C157.75 10.302 157.844 10.8713 157.844 11.562V16H156.78V11.618C156.78 11.1327 156.714 10.736 156.584 10.428C156.462 10.1107 156.271 9.87733 156.01 9.728C155.748 9.57867 155.426 9.50867 155.044 9.518C154.726 9.518 154.432 9.574 154.162 9.686C153.891 9.78867 153.658 9.93333 153.462 10.12C153.266 10.3067 153.112 10.5213 153 10.764C152.888 11.0067 152.832 11.268 152.832 11.548V16H152.314C152.248 16 152.174 16 152.09 16C152.006 16 151.903 16 151.782 16ZM160.856 16V6.774H161.906V16H160.856ZM159.204 9.7V8.692H163.754V9.7H159.204ZM166.849 13.116L166.611 11.254C166.985 11.1607 167.316 11.0533 167.605 10.932C167.895 10.8107 168.142 10.6753 168.347 10.526C168.562 10.3767 168.739 10.218 168.879 10.05C169.019 9.87267 169.122 9.686 169.187 9.49C169.262 9.28467 169.299 9.07 169.299 8.846C169.299 8.51933 169.22 8.22533 169.061 7.964C168.903 7.70267 168.679 7.502 168.389 7.362C168.1 7.21267 167.778 7.138 167.423 7.138C167.003 7.138 166.597 7.264 166.205 7.516C165.823 7.768 165.487 8.146 165.197 8.65L164.427 7.992C164.819 7.404 165.281 6.94667 165.813 6.62C166.355 6.284 166.915 6.116 167.493 6.116C168.053 6.116 168.553 6.23733 168.991 6.48C169.439 6.72267 169.794 7.04933 170.055 7.46C170.317 7.87067 170.447 8.33267 170.447 8.846C170.447 9.17267 170.382 9.49 170.251 9.798C170.13 10.0967 169.953 10.3813 169.719 10.652C169.486 10.9133 169.211 11.1467 168.893 11.352C168.576 11.548 168.231 11.7067 167.857 11.828L167.661 13.116H166.849ZM166.471 15.272C166.471 15.02 166.541 14.8147 166.681 14.656C166.821 14.488 167.013 14.404 167.255 14.404C167.498 14.404 167.689 14.4833 167.829 14.642C167.969 14.7913 168.039 15.0013 168.039 15.272C168.039 15.5333 167.965 15.7433 167.815 15.902C167.675 16.0607 167.489 16.14 167.255 16.14C167.003 16.14 166.807 16.0653 166.667 15.916C166.537 15.7667 166.471 15.552 166.471 15.272ZM179.102 16.14C178.411 16.14 177.795 15.9767 177.254 15.65C176.713 15.314 176.283 14.8613 175.966 14.292C175.658 13.7133 175.504 13.06 175.504 12.332C175.504 11.604 175.658 10.9553 175.966 10.386C176.283 9.80733 176.713 9.35467 177.254 9.028C177.795 8.70133 178.416 8.538 179.116 8.538C179.741 8.538 180.311 8.664 180.824 8.916C181.337 9.15867 181.748 9.49933 182.056 9.938L181.44 10.694C181.263 10.4607 181.048 10.2553 180.796 10.078C180.553 9.90067 180.287 9.76533 179.998 9.672C179.718 9.56933 179.438 9.518 179.158 9.518C178.663 9.518 178.22 9.644 177.828 9.896C177.436 10.1387 177.123 10.47 176.89 10.89C176.666 11.31 176.554 11.7907 176.554 12.332C176.554 12.8733 176.666 13.3587 176.89 13.788C177.123 14.208 177.436 14.5393 177.828 14.782C178.22 15.0247 178.659 15.146 179.144 15.146C179.424 15.146 179.699 15.104 179.97 15.02C180.241 14.9267 180.497 14.796 180.74 14.628C180.983 14.46 181.207 14.25 181.412 13.998L182.028 14.754C181.711 15.174 181.286 15.51 180.754 15.762C180.222 16.014 179.671 16.14 179.102 16.14ZM183.419 16V5.64H184.469V16H183.419ZM186.816 16V8.692H187.866V16H186.816ZM187.334 7.11C187.072 7.11 186.872 7.04467 186.732 6.914C186.601 6.774 186.536 6.58733 186.536 6.354C186.536 6.12067 186.606 5.934 186.746 5.794C186.886 5.654 187.082 5.584 187.334 5.584C187.586 5.584 187.782 5.654 187.922 5.794C188.062 5.92467 188.132 6.11133 188.132 6.354C188.132 6.578 188.062 6.76 187.922 6.9C187.782 7.04 187.586 7.11 187.334 7.11ZM193.239 16.14C192.548 16.14 191.932 15.9767 191.391 15.65C190.849 15.314 190.42 14.8613 190.103 14.292C189.795 13.7133 189.641 13.06 189.641 12.332C189.641 11.604 189.795 10.9553 190.103 10.386C190.42 9.80733 190.849 9.35467 191.391 9.028C191.932 8.70133 192.553 8.538 193.253 8.538C193.878 8.538 194.447 8.664 194.961 8.916C195.474 9.15867 195.885 9.49933 196.193 9.938L195.577 10.694C195.399 10.4607 195.185 10.2553 194.933 10.078C194.69 9.90067 194.424 9.76533 194.135 9.672C193.855 9.56933 193.575 9.518 193.295 9.518C192.8 9.518 192.357 9.644 191.965 9.896C191.573 10.1387 191.26 10.47 191.027 10.89C190.803 11.31 190.691 11.7907 190.691 12.332C190.691 12.8733 190.803 13.3587 191.027 13.788C191.26 14.208 191.573 14.5393 191.965 14.782C192.357 15.0247 192.795 15.146 193.281 15.146C193.561 15.146 193.836 15.104 194.107 15.02C194.377 14.9267 194.634 14.796 194.877 14.628C195.119 14.46 195.343 14.25 195.549 13.998L196.165 14.754C195.847 15.174 195.423 15.51 194.891 15.762C194.359 16.014 193.808 16.14 193.239 16.14ZM198.466 13.648L198.424 12.43L202.246 8.692H203.66L198.466 13.648ZM197.528 16V5.64H198.578V16H197.528ZM202.54 16L199.46 12.43L200.202 11.702L203.912 16H202.54ZM208.985 16V5.64H210.035V10.288L209.825 10.498C209.928 10.1153 210.119 9.77933 210.399 9.49C210.679 9.19133 211.006 8.958 211.379 8.79C211.762 8.622 212.149 8.538 212.541 8.538C213.101 8.538 213.568 8.64533 213.941 8.86C214.314 9.07467 214.59 9.406 214.767 9.854C214.954 10.302 215.047 10.8713 215.047 11.562V16H213.983V11.618C213.983 11.1327 213.918 10.736 213.787 10.428C213.666 10.1107 213.474 9.87733 213.213 9.728C212.952 9.57867 212.625 9.50867 212.233 9.518C211.925 9.518 211.636 9.574 211.365 9.686C211.094 9.78867 210.861 9.93333 210.665 10.12C210.469 10.3067 210.315 10.5213 210.203 10.764C210.091 11.0067 210.035 11.268 210.035 11.548V16H209.517C209.452 16 209.377 16 209.293 16C209.209 16 209.106 16 208.985 16ZM220.271 16.14C219.543 16.14 218.895 15.9813 218.325 15.664C217.765 15.3467 217.327 14.9033 217.009 14.334C216.692 13.7647 216.533 13.1113 216.533 12.374C216.533 11.8047 216.622 11.2913 216.799 10.834C216.977 10.3673 217.224 9.96133 217.541 9.616C217.868 9.27067 218.255 9.00467 218.703 8.818C219.151 8.622 219.637 8.524 220.159 8.524C220.654 8.524 221.102 8.61267 221.503 8.79C221.914 8.96733 222.264 9.21467 222.553 9.532C222.852 9.84 223.076 10.2087 223.225 10.638C223.375 11.0673 223.44 11.5387 223.421 12.052L223.407 12.542H217.317L217.163 11.66H222.609L222.357 11.898V11.562C222.339 11.226 222.241 10.904 222.063 10.596C221.886 10.2787 221.634 10.022 221.307 9.826C220.99 9.63 220.607 9.532 220.159 9.532C219.637 9.532 219.184 9.63933 218.801 9.854C218.419 10.0593 218.125 10.3673 217.919 10.778C217.714 11.1887 217.611 11.6973 217.611 12.304C217.611 12.8827 217.723 13.3867 217.947 13.816C218.171 14.236 218.489 14.5627 218.899 14.796C219.319 15.0293 219.823 15.146 220.411 15.146C220.757 15.146 221.097 15.09 221.433 14.978C221.779 14.8567 222.157 14.6233 222.567 14.278L223.113 15.034C222.899 15.2487 222.642 15.44 222.343 15.608C222.045 15.7667 221.718 15.8973 221.363 16C221.009 16.0933 220.645 16.14 220.271 16.14ZM224.913 16V8.692H225.963L225.991 10.638L225.879 10.372C225.981 10.0453 226.145 9.742 226.369 9.462C226.602 9.182 226.877 8.958 227.195 8.79C227.512 8.622 227.862 8.538 228.245 8.538C228.403 8.538 228.553 8.552 228.693 8.58C228.833 8.59867 228.949 8.62667 229.043 8.664L228.749 9.84C228.627 9.784 228.501 9.74667 228.371 9.728C228.249 9.7 228.133 9.686 228.021 9.686C227.703 9.686 227.419 9.742 227.167 9.854C226.915 9.966 226.7 10.1247 226.523 10.33C226.345 10.526 226.21 10.7547 226.117 11.016C226.023 11.2773 225.977 11.5573 225.977 11.856V16H224.913ZM233.041 16.14C232.313 16.14 231.664 15.9813 231.095 15.664C230.535 15.3467 230.096 14.9033 229.779 14.334C229.461 13.7647 229.303 13.1113 229.303 12.374C229.303 11.8047 229.391 11.2913 229.569 10.834C229.746 10.3673 229.993 9.96133 230.311 9.616C230.637 9.27067 231.025 9.00467 231.473 8.818C231.921 8.622 232.406 8.524 232.929 8.524C233.423 8.524 233.871 8.61267 234.273 8.79C234.683 8.96733 235.033 9.21467 235.323 9.532C235.621 9.84 235.845 10.2087 235.995 10.638C236.144 11.0673 236.209 11.5387 236.191 12.052L236.177 12.542H230.087L229.933 11.66H235.379L235.127 11.898V11.562C235.108 11.226 235.01 10.904 234.833 10.596C234.655 10.2787 234.403 10.022 234.077 9.826C233.759 9.63 233.377 9.532 232.929 9.532C232.406 9.532 231.953 9.63933 231.571 9.854C231.188 10.0593 230.894 10.3673 230.689 10.778C230.483 11.1887 230.381 11.6973 230.381 12.304C230.381 12.8827 230.493 13.3867 230.717 13.816C230.941 14.236 231.258 14.5627 231.669 14.796C232.089 15.0293 232.593 15.146 233.181 15.146C233.526 15.146 233.867 15.09 234.203 14.978C234.548 14.8567 234.926 14.6233 235.337 14.278L235.883 15.034C235.668 15.2487 235.411 15.44 235.113 15.608C234.814 15.7667 234.487 15.8973 234.133 16C233.778 16.0933 233.414 16.14 233.041 16.14Z" fill="black"/>
<path d="M310 21H253V23H310V21Z" fill="#DE177C" mask="url(#path-2-inside-1_82_302)"/>
<path d="M263.298 16.14C262.803 16.14 262.337 16.07 261.898 15.93C261.459 15.79 261.058 15.58 260.694 15.3C260.33 15.02 260.008 14.6747 259.728 14.264L260.484 13.424C260.923 14.0493 261.371 14.488 261.828 14.74C262.295 14.992 262.817 15.118 263.396 15.118C263.816 15.118 264.199 15.048 264.544 14.908C264.889 14.768 265.16 14.572 265.356 14.32C265.552 14.068 265.65 13.7787 265.65 13.452C265.65 13.2373 265.613 13.046 265.538 12.878C265.473 12.71 265.37 12.5607 265.23 12.43C265.09 12.2993 264.917 12.1827 264.712 12.08C264.507 11.9773 264.269 11.884 263.998 11.8C263.737 11.716 263.443 11.632 263.116 11.548C262.64 11.436 262.22 11.3053 261.856 11.156C261.501 10.9973 261.198 10.806 260.946 10.582C260.703 10.358 260.517 10.1013 260.386 9.812C260.265 9.51333 260.204 9.16333 260.204 8.762C260.204 8.37933 260.283 8.02467 260.442 7.698C260.61 7.37133 260.839 7.09133 261.128 6.858C261.417 6.61533 261.758 6.42867 262.15 6.298C262.542 6.16733 262.962 6.102 263.41 6.102C263.914 6.102 264.362 6.172 264.754 6.312C265.155 6.44267 265.51 6.63867 265.818 6.9C266.126 7.16133 266.392 7.474 266.616 7.838L265.846 8.594C265.65 8.286 265.426 8.02 265.174 7.796C264.931 7.572 264.661 7.404 264.362 7.292C264.073 7.17067 263.751 7.11 263.396 7.11C262.985 7.11 262.621 7.18 262.304 7.32C261.996 7.46 261.753 7.656 261.576 7.908C261.399 8.15067 261.31 8.43067 261.31 8.748C261.31 8.98133 261.352 9.19133 261.436 9.378C261.52 9.55533 261.651 9.714 261.828 9.854C262.015 9.98467 262.253 10.106 262.542 10.218C262.841 10.3207 263.195 10.4187 263.606 10.512C264.091 10.624 264.525 10.7593 264.908 10.918C265.3 11.0767 265.631 11.268 265.902 11.492C266.182 11.7067 266.392 11.9587 266.532 12.248C266.681 12.5373 266.756 12.8687 266.756 13.242C266.756 13.8207 266.611 14.3293 266.322 14.768C266.033 15.1973 265.627 15.5333 265.104 15.776C264.591 16.0187 263.989 16.14 263.298 16.14ZM268.82 16V8.692H269.87V16H268.82ZM269.338 7.11C269.076 7.11 268.876 7.04467 268.736 6.914C268.605 6.774 268.54 6.58733 268.54 6.354C268.54 6.12067 268.61 5.934 268.75 5.794C268.89 5.654 269.086 5.584 269.338 5.584C269.59 5.584 269.786 5.654 269.926 5.794C270.066 5.92467 270.136 6.11133 270.136 6.354C270.136 6.578 270.066 6.76 269.926 6.9C269.786 7.04 269.59 7.11 269.338 7.11ZM275.313 19.22C274.771 19.22 274.258 19.136 273.773 18.968C273.287 18.8 272.886 18.59 272.569 18.338L272.989 17.456C273.175 17.6053 273.39 17.736 273.633 17.848C273.885 17.9693 274.155 18.0627 274.445 18.128C274.734 18.2027 275.028 18.24 275.327 18.24C275.868 18.24 276.325 18.1373 276.699 17.932C277.081 17.736 277.371 17.442 277.567 17.05C277.772 16.658 277.875 16.1727 277.875 15.594V14.194L278.043 14.152C277.959 14.5067 277.777 14.838 277.497 15.146C277.217 15.4447 276.876 15.6873 276.475 15.874C276.073 16.0513 275.649 16.14 275.201 16.14C274.519 16.14 273.908 15.9767 273.367 15.65C272.835 15.3233 272.415 14.8753 272.107 14.306C271.799 13.7273 271.645 13.074 271.645 12.346C271.645 11.6087 271.799 10.9553 272.107 10.386C272.424 9.80733 272.849 9.35467 273.381 9.028C273.913 8.70133 274.51 8.538 275.173 8.538C275.462 8.538 275.742 8.57533 276.013 8.65C276.283 8.71533 276.531 8.81333 276.755 8.944C276.988 9.07467 277.198 9.224 277.385 9.392C277.571 9.56 277.725 9.742 277.847 9.938C277.977 10.134 278.071 10.3347 278.127 10.54L277.833 10.498L277.875 8.692H278.925V15.552C278.925 16.14 278.841 16.658 278.673 17.106C278.505 17.5633 278.257 17.946 277.931 18.254C277.613 18.5713 277.231 18.8093 276.783 18.968C276.344 19.136 275.854 19.22 275.313 19.22ZM275.327 15.132C275.821 15.132 276.26 15.0153 276.643 14.782C277.035 14.5393 277.343 14.208 277.567 13.788C277.791 13.368 277.903 12.8827 277.903 12.332C277.903 11.7907 277.791 11.31 277.567 10.89C277.352 10.47 277.049 10.1387 276.657 9.896C276.265 9.65333 275.821 9.532 275.327 9.532C274.823 9.532 274.375 9.65333 273.983 9.896C273.6 10.1387 273.297 10.47 273.073 10.89C272.849 11.31 272.737 11.7907 272.737 12.332C272.737 12.864 272.844 13.3447 273.059 13.774C273.283 14.194 273.586 14.5253 273.969 14.768C274.361 15.0107 274.813 15.132 275.327 15.132ZM280.967 16V8.692H282.003L282.045 10.218L281.877 10.288C281.971 9.97067 282.153 9.68133 282.423 9.42C282.694 9.15867 283.016 8.94867 283.389 8.79C283.772 8.622 284.164 8.538 284.565 8.538C285.107 8.538 285.559 8.64533 285.923 8.86C286.287 9.07467 286.563 9.406 286.749 9.854C286.936 10.302 287.029 10.8713 287.029 11.562V16H285.965V11.618C285.965 11.1327 285.9 10.736 285.769 10.428C285.648 10.1107 285.457 9.87733 285.195 9.728C284.934 9.57867 284.612 9.50867 284.229 9.518C283.912 9.518 283.618 9.574 283.347 9.686C283.077 9.78867 282.843 9.93333 282.647 10.12C282.451 10.3067 282.297 10.5213 282.185 10.764C282.073 11.0067 282.017 11.268 282.017 11.548V16H281.499C281.434 16 281.359 16 281.275 16C281.191 16 281.089 16 280.967 16ZM293.238 16V8.692H294.288V16H293.238ZM293.756 7.11C293.494 7.11 293.294 7.04467 293.154 6.914C293.023 6.774 292.958 6.58733 292.958 6.354C292.958 6.12067 293.028 5.934 293.168 5.794C293.308 5.654 293.504 5.584 293.756 5.584C294.008 5.584 294.204 5.654 294.344 5.794C294.484 5.92467 294.554 6.11133 294.554 6.354C294.554 6.578 294.484 6.76 294.344 6.9C294.204 7.04 294.008 7.11 293.756 7.11ZM296.581 16V8.692H297.617L297.659 10.218L297.491 10.288C297.584 9.97067 297.766 9.68133 298.037 9.42C298.307 9.15867 298.629 8.94867 299.003 8.79C299.385 8.622 299.777 8.538 300.179 8.538C300.72 8.538 301.173 8.64533 301.537 8.86C301.901 9.07467 302.176 9.406 302.363 9.854C302.549 10.302 302.643 10.8713 302.643 11.562V16H301.579V11.618C301.579 11.1327 301.513 10.736 301.383 10.428C301.261 10.1107 301.07 9.87733 300.809 9.728C300.547 9.57867 300.225 9.50867 299.843 9.518C299.525 9.518 299.231 9.574 298.961 9.686C298.69 9.78867 298.457 9.93333 298.261 10.12C298.065 10.3067 297.911 10.5213 297.799 10.764C297.687 11.0067 297.631 11.268 297.631 11.548V16H297.113C297.047 16 296.973 16 296.889 16C296.805 16 296.702 16 296.581 16Z" fill="#DE177C"/>
</svg>
