<svg width="245" height="18" viewBox="0 0 245 18" fill="none" xmlns="http://www.w3.org/2000/svg">
<path d="M119.256 14.14C118.528 14.14 117.879 13.9767 117.31 13.65C116.75 13.3233 116.307 12.8707 115.98 12.292C115.663 11.7133 115.504 11.0553 115.504 10.318C115.504 9.59 115.663 8.94133 115.98 8.372C116.307 7.80267 116.75 7.35467 117.31 7.028C117.879 6.70133 118.528 6.538 119.256 6.538C119.975 6.538 120.614 6.70133 121.174 7.028C121.743 7.35467 122.187 7.80267 122.504 8.372C122.831 8.94133 122.994 9.59 122.994 10.318C122.994 11.0553 122.831 11.7133 122.504 12.292C122.187 12.8707 121.743 13.3233 121.174 13.65C120.614 13.9767 119.975 14.14 119.256 14.14ZM119.256 13.146C119.769 13.146 120.227 13.0247 120.628 12.782C121.029 12.53 121.342 12.194 121.566 11.774C121.79 11.3447 121.902 10.8593 121.902 10.318C121.902 9.77667 121.79 9.296 121.566 8.876C121.342 8.456 121.029 8.12933 120.628 7.896C120.227 7.65333 119.769 7.532 119.256 7.532C118.743 7.532 118.281 7.65333 117.87 7.896C117.469 8.12933 117.151 8.46067 116.918 8.89C116.694 9.31 116.587 9.786 116.596 10.318C116.587 10.8593 116.694 11.3447 116.918 11.774C117.151 12.194 117.469 12.53 117.87 12.782C118.281 13.0247 118.743 13.146 119.256 13.146ZM124.526 14V6.692H125.576L125.604 8.638L125.492 8.372C125.595 8.04533 125.758 7.742 125.982 7.462C126.215 7.182 126.491 6.958 126.808 6.79C127.125 6.622 127.475 6.538 127.858 6.538C128.017 6.538 128.166 6.552 128.306 6.58C128.446 6.59867 128.563 6.62667 128.656 6.664L128.362 7.84C128.241 7.784 128.115 7.74667 127.984 7.728C127.863 7.7 127.746 7.686 127.634 7.686C127.317 7.686 127.032 7.742 126.78 7.854C126.528 7.966 126.313 8.12467 126.136 8.33C125.959 8.526 125.823 8.75467 125.73 9.016C125.637 9.27733 125.59 9.55733 125.59 9.856V14H124.526Z" fill="#777777"/>
<line x1="149.5" y1="8.5" x2="244.5" y2="8.5" stroke="#777777" stroke-linecap="round"/>
<line x1="0.5" y1="8.5" x2="95.5" y2="8.5" stroke="#777777" stroke-linecap="round"/>
</svg>
