<svg width="193" height="24" viewBox="0 0 193 24" fill="none" xmlns="http://www.w3.org/2000/svg">
<rect width="24" height="24" rx="4" fill="#D9D9D9"/>
<path d="M34.6471 17V7.2H38.4831C39.0524 7.2 39.5657 7.33533 40.0231 7.606C40.4897 7.86733 40.8584 8.22667 41.1291 8.684C41.3997 9.14133 41.5351 9.65933 41.5351 10.238C41.5351 10.7793 41.4044 11.2693 41.1431 11.708C40.8817 12.1467 40.5271 12.4967 40.0791 12.758C39.6311 13.01 39.1271 13.136 38.5671 13.136H35.7391V17H34.6471ZM40.6251 17L38.1611 12.688L39.2111 12.324L41.9271 17H40.6251ZM35.7391 12.072H38.6651C39.0104 12.072 39.3137 11.9927 39.5751 11.834C39.8364 11.6753 40.0417 11.4607 40.1911 11.19C40.3404 10.91 40.4151 10.5927 40.4151 10.238C40.4151 9.85533 40.3264 9.51467 40.1491 9.216C39.9717 8.91733 39.7244 8.684 39.4071 8.516C39.0991 8.348 38.7444 8.264 38.3431 8.264H35.7391V12.072ZM46.4158 17.14C45.6878 17.14 45.0392 16.9813 44.4698 16.664C43.9098 16.3467 43.4712 15.9033 43.1538 15.334C42.8365 14.7647 42.6778 14.1113 42.6778 13.374C42.6778 12.8047 42.7665 12.2913 42.9438 11.834C43.1212 11.3673 43.3685 10.9613 43.6858 10.616C44.0125 10.2707 44.3998 10.0047 44.8478 9.818C45.2958 9.622 45.7812 9.524 46.3038 9.524C46.7985 9.524 47.2465 9.61267 47.6478 9.79C48.0585 9.96733 48.4085 10.2147 48.6978 10.532C48.9965 10.84 49.2205 11.2087 49.3698 11.638C49.5192 12.0673 49.5845 12.5387 49.5658 13.052L49.5518 13.542H43.4618L43.3078 12.66H48.7538L48.5018 12.898V12.562C48.4832 12.226 48.3852 11.904 48.2078 11.596C48.0305 11.2787 47.7785 11.022 47.4518 10.826C47.1345 10.63 46.7518 10.532 46.3038 10.532C45.7812 10.532 45.3285 10.6393 44.9458 10.854C44.5632 11.0593 44.2692 11.3673 44.0638 11.778C43.8585 12.1887 43.7558 12.6973 43.7558 13.304C43.7558 13.8827 43.8678 14.3867 44.0918 14.816C44.3158 15.236 44.6332 15.5627 45.0438 15.796C45.4638 16.0293 45.9678 16.146 46.5558 16.146C46.9012 16.146 47.2418 16.09 47.5778 15.978C47.9232 15.8567 48.3012 15.6233 48.7118 15.278L49.2578 16.034C49.0432 16.2487 48.7865 16.44 48.4878 16.608C48.1892 16.7667 47.8625 16.8973 47.5078 17C47.1532 17.0933 46.7892 17.14 46.4158 17.14ZM51.0432 17V9.692H52.0932L52.1212 11.358L51.9112 11.428C51.9858 11.148 52.1072 10.896 52.2752 10.672C52.4525 10.4387 52.6625 10.238 52.9052 10.07C53.1478 9.902 53.4138 9.776 53.7032 9.692C53.9925 9.59867 54.2958 9.552 54.6132 9.552C54.9958 9.552 55.3365 9.61733 55.6352 9.748C55.9432 9.86933 56.1998 10.084 56.4052 10.392C56.6198 10.6907 56.7832 11.0873 56.8952 11.582L56.6432 11.456L56.7412 11.218C56.8345 11.0033 56.9698 10.798 57.1472 10.602C57.3338 10.3967 57.5438 10.2147 57.7772 10.056C58.0198 9.89733 58.2812 9.776 58.5612 9.692C58.8505 9.59867 59.1445 9.552 59.4432 9.552C59.9565 9.552 60.3905 9.664 60.7452 9.888C61.0998 10.1027 61.3658 10.434 61.5432 10.882C61.7298 11.33 61.8232 11.8993 61.8232 12.59V17H60.7452V12.646C60.7452 12.1607 60.6845 11.764 60.5632 11.456C60.4418 11.148 60.2598 10.9193 60.0172 10.77C59.7838 10.6113 59.4852 10.532 59.1212 10.532C58.8038 10.532 58.5098 10.588 58.2392 10.7C57.9778 10.8027 57.7492 10.952 57.5532 11.148C57.3665 11.3347 57.2172 11.5493 57.1052 11.792C57.0025 12.0347 56.9512 12.296 56.9512 12.576V17H55.8872V12.632C55.8872 12.1653 55.8218 11.778 55.6912 11.47C55.5698 11.162 55.3878 10.9287 55.1452 10.77C54.9025 10.6113 54.6038 10.532 54.2492 10.532C53.9412 10.532 53.6565 10.588 53.3952 10.7C53.1338 10.8027 52.9052 10.9473 52.7092 11.134C52.5225 11.3207 52.3732 11.5353 52.2612 11.778C52.1585 12.0207 52.1072 12.282 52.1072 12.562V17H51.0432ZM67.033 17.14C66.305 17.14 65.6563 16.9813 65.087 16.664C64.527 16.3467 64.0883 15.9033 63.771 15.334C63.4537 14.7647 63.295 14.1113 63.295 13.374C63.295 12.8047 63.3837 12.2913 63.561 11.834C63.7383 11.3673 63.9857 10.9613 64.303 10.616C64.6297 10.2707 65.017 10.0047 65.465 9.818C65.913 9.622 66.3983 9.524 66.921 9.524C67.4157 9.524 67.8637 9.61267 68.265 9.79C68.6757 9.96733 69.0257 10.2147 69.315 10.532C69.6137 10.84 69.8377 11.2087 69.987 11.638C70.1363 12.0673 70.2017 12.5387 70.183 13.052L70.169 13.542H64.079L63.925 12.66H69.371L69.119 12.898V12.562C69.1003 12.226 69.0023 11.904 68.825 11.596C68.6477 11.2787 68.3957 11.022 68.069 10.826C67.7517 10.63 67.369 10.532 66.921 10.532C66.3983 10.532 65.9457 10.6393 65.563 10.854C65.1803 11.0593 64.8863 11.3673 64.681 11.778C64.4757 12.1887 64.373 12.6973 64.373 13.304C64.373 13.8827 64.485 14.3867 64.709 14.816C64.933 15.236 65.2503 15.5627 65.661 15.796C66.081 16.0293 66.585 16.146 67.173 16.146C67.5183 16.146 67.859 16.09 68.195 15.978C68.5403 15.8567 68.9183 15.6233 69.329 15.278L69.875 16.034C69.6603 16.2487 69.4037 16.44 69.105 16.608C68.8063 16.7667 68.4797 16.8973 68.125 17C67.7703 17.0933 67.4063 17.14 67.033 17.14ZM71.6603 17V9.692H72.7103L72.7383 11.358L72.5283 11.428C72.603 11.148 72.7243 10.896 72.8923 10.672C73.0697 10.4387 73.2797 10.238 73.5223 10.07C73.765 9.902 74.031 9.776 74.3203 9.692C74.6097 9.59867 74.913 9.552 75.2303 9.552C75.613 9.552 75.9537 9.61733 76.2523 9.748C76.5603 9.86933 76.817 10.084 77.0223 10.392C77.237 10.6907 77.4003 11.0873 77.5123 11.582L77.2603 11.456L77.3583 11.218C77.4517 11.0033 77.587 10.798 77.7643 10.602C77.951 10.3967 78.161 10.2147 78.3943 10.056C78.637 9.89733 78.8983 9.776 79.1783 9.692C79.4677 9.59867 79.7617 9.552 80.0603 9.552C80.5737 9.552 81.0077 9.664 81.3623 9.888C81.717 10.1027 81.983 10.434 82.1603 10.882C82.347 11.33 82.4403 11.8993 82.4403 12.59V17H81.3623V12.646C81.3623 12.1607 81.3017 11.764 81.1803 11.456C81.059 11.148 80.877 10.9193 80.6343 10.77C80.401 10.6113 80.1023 10.532 79.7383 10.532C79.421 10.532 79.127 10.588 78.8563 10.7C78.595 10.8027 78.3663 10.952 78.1703 11.148C77.9837 11.3347 77.8343 11.5493 77.7223 11.792C77.6197 12.0347 77.5683 12.296 77.5683 12.576V17H76.5043V12.632C76.5043 12.1653 76.439 11.778 76.3083 11.47C76.187 11.162 76.005 10.9287 75.7623 10.77C75.5197 10.6113 75.221 10.532 74.8663 10.532C74.5583 10.532 74.2737 10.588 74.0123 10.7C73.751 10.8027 73.5223 10.9473 73.3263 11.134C73.1397 11.3207 72.9903 11.5353 72.8783 11.778C72.7757 12.0207 72.7243 12.282 72.7243 12.562V17H71.6603ZM88.1402 17.14C87.7949 17.14 87.4589 17.0887 87.1322 16.986C86.8055 16.874 86.5069 16.7247 86.2362 16.538C85.9749 16.3513 85.7509 16.1367 85.5642 15.894C85.3869 15.6513 85.2655 15.3993 85.2002 15.138L85.5082 15.152L85.4662 16.986H84.4302V6.64H85.4802V11.442L85.2702 11.498C85.3355 11.2367 85.4522 10.9893 85.6202 10.756C85.7975 10.5133 86.0169 10.3033 86.2782 10.126C86.5395 9.93933 86.8242 9.79467 87.1322 9.692C87.4495 9.58933 87.7762 9.538 88.1122 9.538C88.7655 9.538 89.3489 9.70133 89.8622 10.028C90.3849 10.3547 90.8002 10.8027 91.1082 11.372C91.4162 11.9413 91.5702 12.5947 91.5702 13.332C91.5702 14.0693 91.4209 14.7273 91.1222 15.306C90.8235 15.8753 90.4129 16.3233 89.8902 16.65C89.3769 16.9767 88.7935 17.14 88.1402 17.14ZM87.9722 16.146C88.4669 16.146 88.9055 16.0247 89.2882 15.782C89.6709 15.53 89.9695 15.194 90.1842 14.774C90.4082 14.3447 90.5202 13.864 90.5202 13.332C90.5202 12.7907 90.4082 12.31 90.1842 11.89C89.9695 11.47 89.6709 11.1387 89.2882 10.896C88.9055 10.6533 88.4669 10.532 87.9722 10.532C87.4775 10.532 87.0389 10.6533 86.6562 10.896C86.2735 11.1387 85.9702 11.47 85.7462 11.89C85.5315 12.31 85.4242 12.7907 85.4242 13.332C85.4242 13.8733 85.5315 14.3587 85.7462 14.788C85.9702 15.208 86.2735 15.5393 86.6562 15.782C87.0389 16.0247 87.4775 16.146 87.9722 16.146ZM96.3182 17.14C95.5902 17.14 94.9415 16.9813 94.3722 16.664C93.8122 16.3467 93.3735 15.9033 93.0562 15.334C92.7388 14.7647 92.5802 14.1113 92.5802 13.374C92.5802 12.8047 92.6688 12.2913 92.8462 11.834C93.0235 11.3673 93.2708 10.9613 93.5882 10.616C93.9148 10.2707 94.3022 10.0047 94.7502 9.818C95.1982 9.622 95.6835 9.524 96.2062 9.524C96.7008 9.524 97.1488 9.61267 97.5502 9.79C97.9608 9.96733 98.3108 10.2147 98.6002 10.532C98.8988 10.84 99.1228 11.2087 99.2722 11.638C99.4215 12.0673 99.4868 12.5387 99.4682 13.052L99.4542 13.542H93.3642L93.2102 12.66H98.6562L98.4042 12.898V12.562C98.3855 12.226 98.2875 11.904 98.1102 11.596C97.9328 11.2787 97.6808 11.022 97.3542 10.826C97.0368 10.63 96.6542 10.532 96.2062 10.532C95.6835 10.532 95.2308 10.6393 94.8482 10.854C94.4655 11.0593 94.1715 11.3673 93.9662 11.778C93.7608 12.1887 93.6582 12.6973 93.6582 13.304C93.6582 13.8827 93.7702 14.3867 93.9942 14.816C94.2182 15.236 94.5355 15.5627 94.9462 15.796C95.3662 16.0293 95.8702 16.146 96.4582 16.146C96.8035 16.146 97.1442 16.09 97.4802 15.978C97.8255 15.8567 98.2035 15.6233 98.6142 15.278L99.1602 16.034C98.9455 16.2487 98.6888 16.44 98.3902 16.608C98.0915 16.7667 97.7648 16.8973 97.4102 17C97.0555 17.0933 96.6915 17.14 96.3182 17.14ZM100.96 17V9.692H102.01L102.038 11.638L101.926 11.372C102.028 11.0453 102.192 10.742 102.416 10.462C102.649 10.182 102.924 9.958 103.242 9.79C103.559 9.622 103.909 9.538 104.292 9.538C104.45 9.538 104.6 9.552 104.74 9.58C104.88 9.59867 104.996 9.62667 105.09 9.664L104.796 10.84C104.674 10.784 104.548 10.7467 104.418 10.728C104.296 10.7 104.18 10.686 104.068 10.686C103.75 10.686 103.466 10.742 103.214 10.854C102.962 10.966 102.747 11.1247 102.57 11.33C102.392 11.526 102.257 11.7547 102.164 12.016C102.07 12.2773 102.024 12.5573 102.024 12.856V17H100.96ZM110.092 17V9.692H111.142L111.17 11.358L110.96 11.428C111.035 11.148 111.156 10.896 111.324 10.672C111.501 10.4387 111.711 10.238 111.954 10.07C112.197 9.902 112.463 9.776 112.752 9.692C113.041 9.59867 113.345 9.552 113.662 9.552C114.045 9.552 114.385 9.61733 114.684 9.748C114.992 9.86933 115.249 10.084 115.454 10.392C115.669 10.6907 115.832 11.0873 115.944 11.582L115.692 11.456L115.79 11.218C115.883 11.0033 116.019 10.798 116.196 10.602C116.383 10.3967 116.593 10.2147 116.826 10.056C117.069 9.89733 117.33 9.776 117.61 9.692C117.899 9.59867 118.193 9.552 118.492 9.552C119.005 9.552 119.439 9.664 119.794 9.888C120.149 10.1027 120.415 10.434 120.592 10.882C120.779 11.33 120.872 11.8993 120.872 12.59V17H119.794V12.646C119.794 12.1607 119.733 11.764 119.612 11.456C119.491 11.148 119.309 10.9193 119.066 10.77C118.833 10.6113 118.534 10.532 118.17 10.532C117.853 10.532 117.559 10.588 117.288 10.7C117.027 10.8027 116.798 10.952 116.602 11.148C116.415 11.3347 116.266 11.5493 116.154 11.792C116.051 12.0347 116 12.296 116 12.576V17H114.936V12.632C114.936 12.1653 114.871 11.778 114.74 11.47C114.619 11.162 114.437 10.9287 114.194 10.77C113.951 10.6113 113.653 10.532 113.298 10.532C112.99 10.532 112.705 10.588 112.444 10.7C112.183 10.8027 111.954 10.9473 111.758 11.134C111.571 11.3207 111.422 11.5353 111.31 11.778C111.207 12.0207 111.156 12.282 111.156 12.562V17H110.092ZM126.082 17.14C125.354 17.14 124.705 16.9813 124.136 16.664C123.576 16.3467 123.137 15.9033 122.82 15.334C122.503 14.7647 122.344 14.1113 122.344 13.374C122.344 12.8047 122.433 12.2913 122.61 11.834C122.787 11.3673 123.035 10.9613 123.352 10.616C123.679 10.2707 124.066 10.0047 124.514 9.818C124.962 9.622 125.447 9.524 125.97 9.524C126.465 9.524 126.913 9.61267 127.314 9.79C127.725 9.96733 128.075 10.2147 128.364 10.532C128.663 10.84 128.887 11.2087 129.036 11.638C129.185 12.0673 129.251 12.5387 129.232 13.052L129.218 13.542H123.128L122.974 12.66H128.42L128.168 12.898V12.562C128.149 12.226 128.051 11.904 127.874 11.596C127.697 11.2787 127.445 11.022 127.118 10.826C126.801 10.63 126.418 10.532 125.97 10.532C125.447 10.532 124.995 10.6393 124.612 10.854C124.229 11.0593 123.935 11.3673 123.73 11.778C123.525 12.1887 123.422 12.6973 123.422 13.304C123.422 13.8827 123.534 14.3867 123.758 14.816C123.982 15.236 124.299 15.5627 124.71 15.796C125.13 16.0293 125.634 16.146 126.222 16.146C126.567 16.146 126.908 16.09 127.244 15.978C127.589 15.8567 127.967 15.6233 128.378 15.278L128.924 16.034C128.709 16.2487 128.453 16.44 128.154 16.608C127.855 16.7667 127.529 16.8973 127.174 17C126.819 17.0933 126.455 17.14 126.082 17.14Z" fill="#777777"/>
</svg>
