<svg width="1090" height="63" viewBox="0 0 1090 63" fill="none" xmlns="http://www.w3.org/2000/svg">
<rect width="1090" height="63" fill="#FBFBF4"/>
<circle cx="15.5" cy="31.5" r="15" fill="#EAB0CD" stroke="#DE177C"/>
<path d="M14.44 36.216V27.128L15.032 27.896L12.76 29.048L12.296 27.224L15.352 25.64H16.504V36.216H14.44ZM12.568 37V35.08H18.424V37H12.568Z" fill="black"/>
<circle cx="545.5" cy="31.5" r="15.5" fill="#D9D9D9"/>
<path d="M542.296 37L541.768 35.688L545.128 31.928C545.32 31.736 545.517 31.5173 545.72 31.272C545.923 31.016 546.115 30.7547 546.296 30.488C546.488 30.2107 546.643 29.944 546.76 29.688C546.877 29.4213 546.936 29.176 546.936 28.952C546.936 28.664 546.872 28.4133 546.744 28.2C546.627 27.9867 546.456 27.8213 546.232 27.704C546.008 27.5867 545.731 27.528 545.4 27.528C545.112 27.528 544.829 27.6133 544.552 27.784C544.285 27.944 544.035 28.1787 543.8 28.488C543.576 28.7867 543.389 29.144 543.24 29.56L541.672 28.632C541.864 28.0133 542.152 27.48 542.536 27.032C542.931 26.5733 543.389 26.2213 543.912 25.976C544.445 25.7307 545.021 25.608 545.64 25.608C546.28 25.608 546.851 25.7413 547.352 26.008C547.853 26.2747 548.248 26.6427 548.536 27.112C548.835 27.5813 548.984 28.1307 548.984 28.76C548.984 28.9947 548.957 29.24 548.904 29.496C548.851 29.7413 548.765 30.0027 548.648 30.28C548.541 30.5467 548.397 30.8293 548.216 31.128C548.035 31.416 547.816 31.72 547.56 32.04C547.315 32.36 547.032 32.696 546.712 33.048L544.168 35.816L543.848 35.08H549.384V37H542.296Z" fill="black"/>
<circle cx="1074.5" cy="31.5" r="15.5" fill="#D9D9D9"/>
<path d="M1074.22 37.16C1073.39 37.16 1072.67 36.9787 1072.05 36.616C1071.43 36.2427 1070.86 35.6133 1070.34 34.728L1071.9 33.736C1072.15 34.1307 1072.4 34.4507 1072.66 34.696C1072.92 34.9307 1073.19 35.1067 1073.46 35.224C1073.73 35.3307 1074.03 35.384 1074.34 35.384C1074.69 35.384 1075.01 35.2987 1075.3 35.128C1075.59 34.9573 1075.83 34.7227 1076 34.424C1076.18 34.1253 1076.27 33.784 1076.27 33.4C1076.27 33.016 1076.2 32.6907 1076.05 32.424C1075.91 32.1573 1075.7 31.9547 1075.42 31.816C1075.16 31.6667 1074.83 31.592 1074.45 31.592C1074.28 31.592 1074.1 31.6133 1073.9 31.656C1073.71 31.688 1073.51 31.7413 1073.3 31.816C1073.08 31.88 1072.85 31.96 1072.59 32.056L1072.08 30.696L1075.26 27.176L1075.74 27.64L1071.02 27.608V25.768H1077.6L1077.98 26.536L1074.3 30.552L1073.82 30.024C1073.91 29.9813 1074.05 29.944 1074.24 29.912C1074.44 29.8693 1074.62 29.848 1074.77 29.848C1075.24 29.848 1075.69 29.9387 1076.11 30.12C1076.54 30.2907 1076.91 30.536 1077.22 30.856C1077.54 31.176 1077.79 31.5493 1077.97 31.976C1078.15 32.392 1078.24 32.8453 1078.24 33.336C1078.24 34.072 1078.06 34.728 1077.7 35.304C1077.34 35.8693 1076.86 36.3227 1076.26 36.664C1075.65 36.9947 1074.97 37.16 1074.22 37.16Z" fill="black"/>
<line x1="55" y1="31.5" x2="506" y2="31.5" stroke="#C8C8C8"/>
<line x1="584" y1="31.5" x2="1035" y2="31.5" stroke="#C8C8C8"/>
</svg>
