<svg width="115" height="40" viewBox="0 0 115 40" fill="none" xmlns="http://www.w3.org/2000/svg">
<rect width="115" height="40" rx="20" fill="#DE177C"/>
<path d="M25.056 26.16C24.4053 26.16 23.808 26.08 23.264 25.92C22.72 25.7493 22.2293 25.4987 21.792 25.168C21.3547 24.8373 20.9653 24.4373 20.624 23.968L21.984 22.432C22.5067 23.1573 23.0187 23.6587 23.52 23.936C24.0213 24.2133 24.5867 24.352 25.216 24.352C25.5787 24.352 25.9093 24.2987 26.208 24.192C26.5067 24.0747 26.7413 23.92 26.912 23.728C27.0827 23.5253 27.168 23.296 27.168 23.04C27.168 22.8587 27.1307 22.6933 27.056 22.544C26.992 22.384 26.8907 22.2453 26.752 22.128C26.6133 22 26.4427 21.8827 26.24 21.776C26.0373 21.6693 25.808 21.5787 25.552 21.504C25.296 21.4293 25.0133 21.36 24.704 21.296C24.1173 21.1787 23.6053 21.024 23.168 20.832C22.7307 20.6293 22.3627 20.384 22.064 20.096C21.7653 19.7973 21.5467 19.4667 21.408 19.104C21.2693 18.7307 21.2 18.3093 21.2 17.84C21.2 17.3707 21.3013 16.9387 21.504 16.544C21.7173 16.1493 22.0053 15.808 22.368 15.52C22.7307 15.232 23.152 15.008 23.632 14.848C24.112 14.688 24.6293 14.608 25.184 14.608C25.8133 14.608 26.3733 14.6827 26.864 14.832C27.3653 14.9813 27.8027 15.2053 28.176 15.504C28.56 15.792 28.8747 16.144 29.12 16.56L27.744 17.92C27.5307 17.5893 27.2907 17.3173 27.024 17.104C26.7573 16.88 26.4693 16.7147 26.16 16.608C25.8507 16.4907 25.5253 16.432 25.184 16.432C24.8 16.432 24.464 16.4853 24.176 16.592C23.8987 16.6987 23.68 16.8533 23.52 17.056C23.36 17.248 23.28 17.4827 23.28 17.76C23.28 17.9733 23.328 18.1653 23.424 18.336C23.52 18.496 23.6533 18.64 23.824 18.768C24.0053 18.896 24.2347 19.008 24.512 19.104C24.7893 19.2 25.104 19.2853 25.456 19.36C26.0427 19.4773 26.5707 19.6373 27.04 19.84C27.5093 20.032 27.9093 20.2667 28.24 20.544C28.5707 20.8107 28.8213 21.12 28.992 21.472C29.1627 21.8133 29.248 22.1973 29.248 22.624C29.248 23.36 29.072 23.9947 28.72 24.528C28.3787 25.0507 27.8933 25.456 27.264 25.744C26.6347 26.0213 25.8987 26.16 25.056 26.16ZM35.1353 26.16C34.2499 26.16 33.4659 25.9733 32.7833 25.6C32.1113 25.2267 31.5833 24.72 31.1993 24.08C30.8259 23.4293 30.6393 22.688 30.6393 21.856C30.6393 21.1947 30.7459 20.592 30.9593 20.048C31.1726 19.504 31.4659 19.0347 31.8393 18.64C32.2233 18.2347 32.6766 17.9253 33.1993 17.712C33.7326 17.488 34.3139 17.376 34.9433 17.376C35.4979 17.376 36.0153 17.4827 36.4953 17.696C36.9753 17.9093 37.3913 18.2027 37.7433 18.576C38.0953 18.9387 38.3619 19.376 38.5433 19.888C38.7353 20.3893 38.8259 20.9387 38.8153 21.536L38.7993 22.224H31.9673L31.5993 20.88H37.1513L36.8953 21.152V20.8C36.8633 20.4693 36.7566 20.1813 36.5753 19.936C36.3939 19.68 36.1593 19.4827 35.8713 19.344C35.5939 19.1947 35.2846 19.12 34.9433 19.12C34.4206 19.12 33.9779 19.2213 33.6153 19.424C33.2633 19.6267 32.9966 19.92 32.8153 20.304C32.6339 20.6773 32.5433 21.1467 32.5433 21.712C32.5433 22.256 32.6553 22.7307 32.8793 23.136C33.1139 23.5413 33.4393 23.856 33.8553 24.08C34.2819 24.2933 34.7779 24.4 35.3433 24.4C35.7379 24.4 36.1006 24.336 36.4313 24.208C36.7619 24.08 37.1193 23.8507 37.5033 23.52L38.4792 24.88C38.1913 25.1467 37.8606 25.376 37.4873 25.568C37.1246 25.7493 36.7406 25.8933 36.3353 26C35.9299 26.1067 35.5299 26.16 35.1353 26.16ZM44.5103 26.16C43.6249 26.16 42.8409 25.9733 42.1583 25.6C41.4863 25.2267 40.9583 24.72 40.5743 24.08C40.2009 23.4293 40.0143 22.688 40.0143 21.856C40.0143 21.1947 40.1209 20.592 40.3343 20.048C40.5476 19.504 40.8409 19.0347 41.2143 18.64C41.5983 18.2347 42.0516 17.9253 42.5743 17.712C43.1076 17.488 43.6889 17.376 44.3183 17.376C44.8729 17.376 45.3903 17.4827 45.8703 17.696C46.3503 17.9093 46.7663 18.2027 47.1183 18.576C47.4703 18.9387 47.7369 19.376 47.9183 19.888C48.1103 20.3893 48.2009 20.9387 48.1903 21.536L48.1743 22.224H41.3423L40.9743 20.88H46.5263L46.2703 21.152V20.8C46.2383 20.4693 46.1316 20.1813 45.9503 19.936C45.7689 19.68 45.5343 19.4827 45.2463 19.344C44.9689 19.1947 44.6596 19.12 44.3183 19.12C43.7956 19.12 43.3529 19.2213 42.9903 19.424C42.6383 19.6267 42.3716 19.92 42.1903 20.304C42.0089 20.6773 41.9183 21.1467 41.9183 21.712C41.9183 22.256 42.0303 22.7307 42.2543 23.136C42.4889 23.5413 42.8143 23.856 43.2303 24.08C43.6569 24.2933 44.1529 24.4 44.7183 24.4C45.1129 24.4 45.4756 24.336 45.8063 24.208C46.1369 24.08 46.4943 23.8507 46.8783 23.52L47.8542 24.88C47.5663 25.1467 47.2356 25.376 46.8623 25.568C46.4996 25.7493 46.1156 25.8933 45.7103 26C45.3049 26.1067 44.9049 26.16 44.5103 26.16ZM54.6044 26V17.568H56.5404L56.5724 19.264L56.2524 19.392C56.3484 19.1147 56.4924 18.8587 56.6844 18.624C56.8764 18.3787 57.1057 18.1707 57.3724 18C57.639 17.8187 57.9217 17.68 58.2204 17.584C58.519 17.4773 58.823 17.424 59.1324 17.424C59.591 17.424 59.9964 17.4987 60.3484 17.648C60.711 17.7867 61.0097 18.0107 61.2444 18.32C61.4897 18.6293 61.671 19.024 61.7884 19.504L61.4844 19.44L61.6124 19.184C61.7297 18.928 61.895 18.6987 62.1084 18.496C62.3217 18.2827 62.5617 18.096 62.8284 17.936C63.095 17.7653 63.3724 17.6373 63.6604 17.552C63.959 17.4667 64.2524 17.424 64.5404 17.424C65.1804 17.424 65.7137 17.552 66.1404 17.808C66.567 18.064 66.887 18.4533 67.1004 18.976C67.3137 19.4987 67.4204 20.144 67.4204 20.912V26H65.4364V21.04C65.4364 20.6133 65.3777 20.2613 65.2604 19.984C65.1537 19.7067 64.983 19.504 64.7484 19.376C64.5244 19.2373 64.2417 19.168 63.9004 19.168C63.6337 19.168 63.3777 19.216 63.1324 19.312C62.8977 19.3973 62.695 19.5253 62.5244 19.696C62.3537 19.856 62.2204 20.0427 62.1244 20.256C62.0284 20.4693 61.9804 20.704 61.9804 20.96V26H59.9964V21.024C59.9964 20.6187 59.9377 20.2827 59.8204 20.016C59.703 19.7387 59.5324 19.5307 59.3084 19.392C59.0844 19.2427 58.8124 19.168 58.4924 19.168C58.2257 19.168 57.975 19.216 57.7404 19.312C57.5057 19.3973 57.303 19.52 57.1324 19.68C56.9617 19.84 56.8284 20.0267 56.7324 20.24C56.6364 20.4533 56.5884 20.688 56.5884 20.944V26H54.6044ZM73.4611 26.16C72.6185 26.16 71.8665 25.9733 71.2051 25.6C70.5438 25.216 70.0211 24.6933 69.6371 24.032C69.2531 23.3707 69.0611 22.6187 69.0611 21.776C69.0611 20.9333 69.2531 20.1813 69.6371 19.52C70.0211 18.8587 70.5438 18.3413 71.2051 17.968C71.8665 17.584 72.6185 17.392 73.4611 17.392C74.2931 17.392 75.0398 17.584 75.7011 17.968C76.3625 18.3413 76.8798 18.8587 77.2531 19.52C77.6371 20.1813 77.8291 20.9333 77.8291 21.776C77.8291 22.6187 77.6371 23.3707 77.2531 24.032C76.8798 24.6933 76.3625 25.216 75.7011 25.6C75.0398 25.9733 74.2931 26.16 73.4611 26.16ZM73.4611 24.416C73.9198 24.416 74.3251 24.2987 74.6771 24.064C75.0398 23.8293 75.3225 23.5147 75.5251 23.12C75.7385 22.7253 75.8398 22.2773 75.8291 21.776C75.8398 21.264 75.7385 20.8107 75.5251 20.416C75.3225 20.0213 75.0398 19.712 74.6771 19.488C74.3251 19.2533 73.9198 19.136 73.4611 19.136C73.0025 19.136 72.5865 19.2533 72.2131 19.488C71.8505 19.712 71.5678 20.0267 71.3651 20.432C71.1625 20.8267 71.0611 21.2747 71.0611 21.776C71.0611 22.2773 71.1625 22.7253 71.3651 23.12C71.5678 23.5147 71.8505 23.8293 72.2131 24.064C72.5865 24.2987 73.0025 24.416 73.4611 24.416ZM79.5895 26V17.568H81.5255L81.5575 20.256L81.2855 19.648C81.4028 19.2213 81.6055 18.8373 81.8935 18.496C82.1815 18.1547 82.5122 17.888 82.8855 17.696C83.2695 17.4933 83.6695 17.392 84.0855 17.392C84.2668 17.392 84.4375 17.408 84.5975 17.44C84.7682 17.472 84.9068 17.5093 85.0135 17.552L84.4855 19.712C84.3682 19.648 84.2242 19.5947 84.0535 19.552C83.8828 19.5093 83.7122 19.488 83.5415 19.488C83.2748 19.488 83.0188 19.5413 82.7735 19.648C82.5388 19.744 82.3308 19.8827 82.1495 20.064C81.9682 20.2453 81.8242 20.4587 81.7175 20.704C81.6215 20.9387 81.5735 21.2053 81.5735 21.504V26H79.5895ZM89.9165 26.16C89.0312 26.16 88.2472 25.9733 87.5645 25.6C86.8925 25.2267 86.3645 24.72 85.9805 24.08C85.6072 23.4293 85.4205 22.688 85.4205 21.856C85.4205 21.1947 85.5272 20.592 85.7405 20.048C85.9538 19.504 86.2472 19.0347 86.6205 18.64C87.0045 18.2347 87.4578 17.9253 87.9805 17.712C88.5138 17.488 89.0952 17.376 89.7245 17.376C90.2792 17.376 90.7965 17.4827 91.2765 17.696C91.7565 17.9093 92.1725 18.2027 92.5245 18.576C92.8765 18.9387 93.1432 19.376 93.3245 19.888C93.5165 20.3893 93.6072 20.9387 93.5965 21.536L93.5805 22.224H86.7485L86.3805 20.88H91.9325L91.6765 21.152V20.8C91.6445 20.4693 91.5378 20.1813 91.3565 19.936C91.1752 19.68 90.9405 19.4827 90.6525 19.344C90.3752 19.1947 90.0658 19.12 89.7245 19.12C89.2018 19.12 88.7592 19.2213 88.3965 19.424C88.0445 19.6267 87.7778 19.92 87.5965 20.304C87.4152 20.6773 87.3245 21.1467 87.3245 21.712C87.3245 22.256 87.4365 22.7307 87.6605 23.136C87.8952 23.5413 88.2205 23.856 88.6365 24.08C89.0632 24.2933 89.5592 24.4 90.1245 24.4C90.5192 24.4 90.8818 24.336 91.2125 24.208C91.5432 24.08 91.9005 23.8507 92.2845 23.52L93.2605 24.88C92.9725 25.1467 92.6418 25.376 92.2685 25.568C91.9058 25.7493 91.5218 25.8933 91.1165 26C90.7112 26.1067 90.3112 26.16 89.9165 26.16Z" fill="#FBFBF4"/>
</svg>
