<svg width="300" height="40" viewBox="0 0 300 40" fill="none" xmlns="http://www.w3.org/2000/svg">
<rect width="300" height="40" rx="20" fill="#DE177C"/>
<path d="M127.556 26.16C126.905 26.16 126.308 26.08 125.764 25.92C125.22 25.7493 124.729 25.4987 124.292 25.168C123.855 24.8373 123.465 24.4373 123.124 23.968L124.484 22.432C125.007 23.1573 125.519 23.6587 126.02 23.936C126.521 24.2133 127.087 24.352 127.716 24.352C128.079 24.352 128.409 24.2987 128.708 24.192C129.007 24.0747 129.241 23.92 129.412 23.728C129.583 23.5253 129.668 23.296 129.668 23.04C129.668 22.8587 129.631 22.6933 129.556 22.544C129.492 22.384 129.391 22.2453 129.252 22.128C129.113 22 128.943 21.8827 128.74 21.776C128.537 21.6693 128.308 21.5787 128.052 21.504C127.796 21.4293 127.513 21.36 127.204 21.296C126.617 21.1787 126.105 21.024 125.668 20.832C125.231 20.6293 124.863 20.384 124.564 20.096C124.265 19.7973 124.047 19.4667 123.908 19.104C123.769 18.7307 123.7 18.3093 123.7 17.84C123.7 17.3707 123.801 16.9387 124.004 16.544C124.217 16.1493 124.505 15.808 124.868 15.52C125.231 15.232 125.652 15.008 126.132 14.848C126.612 14.688 127.129 14.608 127.684 14.608C128.313 14.608 128.873 14.6827 129.364 14.832C129.865 14.9813 130.303 15.2053 130.676 15.504C131.06 15.792 131.375 16.144 131.62 16.56L130.244 17.92C130.031 17.5893 129.791 17.3173 129.524 17.104C129.257 16.88 128.969 16.7147 128.66 16.608C128.351 16.4907 128.025 16.432 127.684 16.432C127.3 16.432 126.964 16.4853 126.676 16.592C126.399 16.6987 126.18 16.8533 126.02 17.056C125.86 17.248 125.78 17.4827 125.78 17.76C125.78 17.9733 125.828 18.1653 125.924 18.336C126.02 18.496 126.153 18.64 126.324 18.768C126.505 18.896 126.735 19.008 127.012 19.104C127.289 19.2 127.604 19.2853 127.956 19.36C128.543 19.4773 129.071 19.6373 129.54 19.84C130.009 20.032 130.409 20.2667 130.74 20.544C131.071 20.8107 131.321 21.12 131.492 21.472C131.663 21.8133 131.748 22.1973 131.748 22.624C131.748 23.36 131.572 23.9947 131.22 24.528C130.879 25.0507 130.393 25.456 129.764 25.744C129.135 26.0213 128.399 26.16 127.556 26.16ZM133.907 26V17.568H135.875V26H133.907ZM134.867 15.776C134.473 15.776 134.163 15.68 133.939 15.488C133.726 15.2853 133.619 15.0027 133.619 14.64C133.619 14.2987 133.731 14.0213 133.955 13.808C134.179 13.5947 134.483 13.488 134.867 13.488C135.273 13.488 135.582 13.5893 135.795 13.792C136.019 13.984 136.131 14.2667 136.131 14.64C136.131 14.9707 136.019 15.2427 135.795 15.456C135.571 15.6693 135.262 15.776 134.867 15.776ZM142.163 29.68C141.533 29.68 140.904 29.584 140.275 29.392C139.656 29.2 139.155 28.9493 138.771 28.64L139.475 27.184C139.699 27.344 139.949 27.4827 140.227 27.6C140.504 27.7173 140.797 27.808 141.107 27.872C141.427 27.936 141.741 27.968 142.051 27.968C142.616 27.968 143.085 27.8773 143.459 27.696C143.843 27.5253 144.131 27.2587 144.323 26.896C144.515 26.544 144.611 26.1013 144.611 25.568V24.016L144.899 24.128C144.835 24.4587 144.659 24.7733 144.371 25.072C144.083 25.3707 143.72 25.616 143.283 25.808C142.845 25.9893 142.397 26.08 141.939 26.08C141.139 26.08 140.429 25.8933 139.811 25.52C139.203 25.1467 138.717 24.64 138.355 24C138.003 23.3493 137.827 22.6027 137.827 21.76C137.827 20.9173 138.003 20.1707 138.355 19.52C138.707 18.8587 139.187 18.3413 139.795 17.968C140.413 17.584 141.107 17.392 141.875 17.392C142.195 17.392 142.504 17.4293 142.803 17.504C143.101 17.5787 143.373 17.6853 143.619 17.824C143.875 17.9627 144.104 18.1173 144.307 18.288C144.509 18.4587 144.675 18.64 144.803 18.832C144.931 19.024 145.011 19.2107 145.043 19.392L144.627 19.52L144.659 17.568H146.595V25.424C146.595 26.1067 146.493 26.7093 146.291 27.232C146.088 27.7547 145.795 28.1973 145.411 28.56C145.027 28.9333 144.563 29.2107 144.019 29.392C143.475 29.584 142.856 29.68 142.163 29.68ZM142.243 24.4C142.723 24.4 143.144 24.288 143.507 24.064C143.88 23.84 144.168 23.5307 144.371 23.136C144.573 22.7413 144.675 22.288 144.675 21.776C144.675 21.2533 144.568 20.7947 144.355 20.4C144.152 19.9947 143.869 19.68 143.507 19.456C143.144 19.232 142.723 19.12 142.243 19.12C141.763 19.12 141.341 19.2373 140.979 19.472C140.616 19.696 140.328 20.0107 140.115 20.416C139.912 20.8107 139.811 21.264 139.811 21.776C139.811 22.2773 139.912 22.7307 140.115 23.136C140.328 23.5307 140.616 23.84 140.979 24.064C141.341 24.288 141.763 24.4 142.243 24.4ZM148.871 26V17.568H150.791L150.823 19.296L150.455 19.488C150.561 19.104 150.769 18.7573 151.079 18.448C151.388 18.128 151.756 17.872 152.183 17.68C152.609 17.488 153.047 17.392 153.495 17.392C154.135 17.392 154.668 17.52 155.095 17.776C155.532 18.032 155.857 18.416 156.071 18.928C156.295 19.44 156.407 20.08 156.407 20.848V26H154.439V20.992C154.439 20.5653 154.38 20.2133 154.263 19.936C154.145 19.648 153.964 19.44 153.719 19.312C153.473 19.1733 153.175 19.1093 152.823 19.12C152.535 19.12 152.268 19.168 152.023 19.264C151.788 19.3493 151.58 19.4773 151.399 19.648C151.228 19.808 151.089 19.9947 150.983 20.208C150.887 20.4213 150.839 20.656 150.839 20.912V26H149.863C149.671 26 149.489 26 149.319 26C149.159 26 149.009 26 148.871 26ZM163.548 26V17.568H165.516V26H163.548ZM164.508 15.776C164.113 15.776 163.804 15.68 163.58 15.488C163.367 15.2853 163.26 15.0027 163.26 14.64C163.26 14.2987 163.372 14.0213 163.596 13.808C163.82 13.5947 164.124 13.488 164.508 13.488C164.913 13.488 165.223 13.5893 165.436 13.792C165.66 13.984 165.772 14.2667 165.772 14.64C165.772 14.9707 165.66 15.2427 165.436 15.456C165.212 15.6693 164.903 15.776 164.508 15.776ZM168.011 26V17.568H169.931L169.963 19.296L169.595 19.488C169.702 19.104 169.91 18.7573 170.219 18.448C170.529 18.128 170.897 17.872 171.323 17.68C171.75 17.488 172.187 17.392 172.635 17.392C173.275 17.392 173.809 17.52 174.235 17.776C174.673 18.032 174.998 18.416 175.211 18.928C175.435 19.44 175.547 20.08 175.547 20.848V26H173.579V20.992C173.579 20.5653 173.521 20.2133 173.403 19.936C173.286 19.648 173.105 19.44 172.859 19.312C172.614 19.1733 172.315 19.1093 171.963 19.12C171.675 19.12 171.409 19.168 171.163 19.264C170.929 19.3493 170.721 19.4773 170.539 19.648C170.369 19.808 170.23 19.9947 170.123 20.208C170.027 20.4213 169.979 20.656 169.979 20.912V26H169.003C168.811 26 168.63 26 168.459 26C168.299 26 168.15 26 168.011 26Z" fill="white"/>
</svg>
