<svg width="421" height="40" viewBox="0 0 421 40" fill="none" xmlns="http://www.w3.org/2000/svg">
<rect width="421" height="40" rx="20" fill="#DE177C"/>
<path d="M188.056 26.16C187.405 26.16 186.808 26.08 186.264 25.92C185.72 25.7493 185.229 25.4987 184.792 25.168C184.355 24.8373 183.965 24.4373 183.624 23.968L184.984 22.432C185.507 23.1573 186.019 23.6587 186.52 23.936C187.021 24.2133 187.587 24.352 188.216 24.352C188.579 24.352 188.909 24.2987 189.208 24.192C189.507 24.0747 189.741 23.92 189.912 23.728C190.083 23.5253 190.168 23.296 190.168 23.04C190.168 22.8587 190.131 22.6933 190.056 22.544C189.992 22.384 189.891 22.2453 189.752 22.128C189.613 22 189.443 21.8827 189.24 21.776C189.037 21.6693 188.808 21.5787 188.552 21.504C188.296 21.4293 188.013 21.36 187.704 21.296C187.117 21.1787 186.605 21.024 186.168 20.832C185.731 20.6293 185.363 20.384 185.064 20.096C184.765 19.7973 184.547 19.4667 184.408 19.104C184.269 18.7307 184.2 18.3093 184.2 17.84C184.2 17.3707 184.301 16.9387 184.504 16.544C184.717 16.1493 185.005 15.808 185.368 15.52C185.731 15.232 186.152 15.008 186.632 14.848C187.112 14.688 187.629 14.608 188.184 14.608C188.813 14.608 189.373 14.6827 189.864 14.832C190.365 14.9813 190.803 15.2053 191.176 15.504C191.56 15.792 191.875 16.144 192.12 16.56L190.744 17.92C190.531 17.5893 190.291 17.3173 190.024 17.104C189.757 16.88 189.469 16.7147 189.16 16.608C188.851 16.4907 188.525 16.432 188.184 16.432C187.8 16.432 187.464 16.4853 187.176 16.592C186.899 16.6987 186.68 16.8533 186.52 17.056C186.36 17.248 186.28 17.4827 186.28 17.76C186.28 17.9733 186.328 18.1653 186.424 18.336C186.52 18.496 186.653 18.64 186.824 18.768C187.005 18.896 187.235 19.008 187.512 19.104C187.789 19.2 188.104 19.2853 188.456 19.36C189.043 19.4773 189.571 19.6373 190.04 19.84C190.509 20.032 190.909 20.2667 191.24 20.544C191.571 20.8107 191.821 21.12 191.992 21.472C192.163 21.8133 192.248 22.1973 192.248 22.624C192.248 23.36 192.072 23.9947 191.72 24.528C191.379 25.0507 190.893 25.456 190.264 25.744C189.635 26.0213 188.899 26.16 188.056 26.16ZM194.407 26V17.568H196.375V26H194.407ZM195.367 15.776C194.973 15.776 194.663 15.68 194.439 15.488C194.226 15.2853 194.119 15.0027 194.119 14.64C194.119 14.2987 194.231 14.0213 194.455 13.808C194.679 13.5947 194.983 13.488 195.367 13.488C195.773 13.488 196.082 13.5893 196.295 13.792C196.519 13.984 196.631 14.2667 196.631 14.64C196.631 14.9707 196.519 15.2427 196.295 15.456C196.071 15.6693 195.762 15.776 195.367 15.776ZM202.663 29.68C202.033 29.68 201.404 29.584 200.775 29.392C200.156 29.2 199.655 28.9493 199.271 28.64L199.975 27.184C200.199 27.344 200.449 27.4827 200.727 27.6C201.004 27.7173 201.297 27.808 201.607 27.872C201.927 27.936 202.241 27.968 202.551 27.968C203.116 27.968 203.585 27.8773 203.959 27.696C204.343 27.5253 204.631 27.2587 204.823 26.896C205.015 26.544 205.111 26.1013 205.111 25.568V24.016L205.399 24.128C205.335 24.4587 205.159 24.7733 204.871 25.072C204.583 25.3707 204.22 25.616 203.783 25.808C203.345 25.9893 202.897 26.08 202.439 26.08C201.639 26.08 200.929 25.8933 200.311 25.52C199.703 25.1467 199.217 24.64 198.855 24C198.503 23.3493 198.327 22.6027 198.327 21.76C198.327 20.9173 198.503 20.1707 198.855 19.52C199.207 18.8587 199.687 18.3413 200.295 17.968C200.913 17.584 201.607 17.392 202.375 17.392C202.695 17.392 203.004 17.4293 203.303 17.504C203.601 17.5787 203.873 17.6853 204.119 17.824C204.375 17.9627 204.604 18.1173 204.807 18.288C205.009 18.4587 205.175 18.64 205.303 18.832C205.431 19.024 205.511 19.2107 205.543 19.392L205.127 19.52L205.159 17.568H207.095V25.424C207.095 26.1067 206.993 26.7093 206.791 27.232C206.588 27.7547 206.295 28.1973 205.911 28.56C205.527 28.9333 205.063 29.2107 204.519 29.392C203.975 29.584 203.356 29.68 202.663 29.68ZM202.743 24.4C203.223 24.4 203.644 24.288 204.007 24.064C204.38 23.84 204.668 23.5307 204.871 23.136C205.073 22.7413 205.175 22.288 205.175 21.776C205.175 21.2533 205.068 20.7947 204.855 20.4C204.652 19.9947 204.369 19.68 204.007 19.456C203.644 19.232 203.223 19.12 202.743 19.12C202.263 19.12 201.841 19.2373 201.479 19.472C201.116 19.696 200.828 20.0107 200.615 20.416C200.412 20.8107 200.311 21.264 200.311 21.776C200.311 22.2773 200.412 22.7307 200.615 23.136C200.828 23.5307 201.116 23.84 201.479 24.064C201.841 24.288 202.263 24.4 202.743 24.4ZM209.371 26V17.568H211.291L211.323 19.296L210.955 19.488C211.061 19.104 211.269 18.7573 211.579 18.448C211.888 18.128 212.256 17.872 212.683 17.68C213.109 17.488 213.547 17.392 213.995 17.392C214.635 17.392 215.168 17.52 215.595 17.776C216.032 18.032 216.357 18.416 216.571 18.928C216.795 19.44 216.907 20.08 216.907 20.848V26H214.939V20.992C214.939 20.5653 214.88 20.2133 214.763 19.936C214.645 19.648 214.464 19.44 214.219 19.312C213.973 19.1733 213.675 19.1093 213.323 19.12C213.035 19.12 212.768 19.168 212.523 19.264C212.288 19.3493 212.08 19.4773 211.899 19.648C211.728 19.808 211.589 19.9947 211.483 20.208C211.387 20.4213 211.339 20.656 211.339 20.912V26H210.363C210.171 26 209.989 26 209.819 26C209.659 26 209.509 26 209.371 26ZM224.048 26V17.568H226.016V26H224.048ZM225.008 15.776C224.613 15.776 224.304 15.68 224.08 15.488C223.867 15.2853 223.76 15.0027 223.76 14.64C223.76 14.2987 223.872 14.0213 224.096 13.808C224.32 13.5947 224.624 13.488 225.008 13.488C225.413 13.488 225.723 13.5893 225.936 13.792C226.16 13.984 226.272 14.2667 226.272 14.64C226.272 14.9707 226.16 15.2427 225.936 15.456C225.712 15.6693 225.403 15.776 225.008 15.776ZM228.511 26V17.568H230.431L230.463 19.296L230.095 19.488C230.202 19.104 230.41 18.7573 230.719 18.448C231.029 18.128 231.397 17.872 231.823 17.68C232.25 17.488 232.687 17.392 233.135 17.392C233.775 17.392 234.309 17.52 234.735 17.776C235.173 18.032 235.498 18.416 235.711 18.928C235.935 19.44 236.047 20.08 236.047 20.848V26H234.079V20.992C234.079 20.5653 234.021 20.2133 233.903 19.936C233.786 19.648 233.605 19.44 233.359 19.312C233.114 19.1733 232.815 19.1093 232.463 19.12C232.175 19.12 231.909 19.168 231.663 19.264C231.429 19.3493 231.221 19.4773 231.039 19.648C230.869 19.808 230.73 19.9947 230.623 20.208C230.527 20.4213 230.479 20.656 230.479 20.912V26H229.503C229.311 26 229.13 26 228.959 26C228.799 26 228.65 26 228.511 26Z" fill="white"/>
</svg>
