<svg width="421" height="40" viewBox="0 0 421 40" fill="none" xmlns="http://www.w3.org/2000/svg">
<rect width="421" height="40" rx="20" fill="#DE177C"/>
<path d="M185.556 26.16C184.905 26.16 184.308 26.08 183.764 25.92C183.22 25.7493 182.729 25.4987 182.292 25.168C181.855 24.8373 181.465 24.4373 181.124 23.968L182.484 22.432C183.007 23.1573 183.519 23.6587 184.02 23.936C184.521 24.2133 185.087 24.352 185.716 24.352C186.079 24.352 186.409 24.2987 186.708 24.192C187.007 24.0747 187.241 23.92 187.412 23.728C187.583 23.5253 187.668 23.296 187.668 23.04C187.668 22.8587 187.631 22.6933 187.556 22.544C187.492 22.384 187.391 22.2453 187.252 22.128C187.113 22 186.943 21.8827 186.74 21.776C186.537 21.6693 186.308 21.5787 186.052 21.504C185.796 21.4293 185.513 21.36 185.204 21.296C184.617 21.1787 184.105 21.024 183.668 20.832C183.231 20.6293 182.863 20.384 182.564 20.096C182.265 19.7973 182.047 19.4667 181.908 19.104C181.769 18.7307 181.7 18.3093 181.7 17.84C181.7 17.3707 181.801 16.9387 182.004 16.544C182.217 16.1493 182.505 15.808 182.868 15.52C183.231 15.232 183.652 15.008 184.132 14.848C184.612 14.688 185.129 14.608 185.684 14.608C186.313 14.608 186.873 14.6827 187.364 14.832C187.865 14.9813 188.303 15.2053 188.676 15.504C189.06 15.792 189.375 16.144 189.62 16.56L188.244 17.92C188.031 17.5893 187.791 17.3173 187.524 17.104C187.257 16.88 186.969 16.7147 186.66 16.608C186.351 16.4907 186.025 16.432 185.684 16.432C185.3 16.432 184.964 16.4853 184.676 16.592C184.399 16.6987 184.18 16.8533 184.02 17.056C183.86 17.248 183.78 17.4827 183.78 17.76C183.78 17.9733 183.828 18.1653 183.924 18.336C184.02 18.496 184.153 18.64 184.324 18.768C184.505 18.896 184.735 19.008 185.012 19.104C185.289 19.2 185.604 19.2853 185.956 19.36C186.543 19.4773 187.071 19.6373 187.54 19.84C188.009 20.032 188.409 20.2667 188.74 20.544C189.071 20.8107 189.321 21.12 189.492 21.472C189.663 21.8133 189.748 22.1973 189.748 22.624C189.748 23.36 189.572 23.9947 189.22 24.528C188.879 25.0507 188.393 25.456 187.764 25.744C187.135 26.0213 186.399 26.16 185.556 26.16ZM191.907 26V17.568H193.875V26H191.907ZM192.867 15.776C192.473 15.776 192.163 15.68 191.939 15.488C191.726 15.2853 191.619 15.0027 191.619 14.64C191.619 14.2987 191.731 14.0213 191.955 13.808C192.179 13.5947 192.483 13.488 192.867 13.488C193.273 13.488 193.582 13.5893 193.795 13.792C194.019 13.984 194.131 14.2667 194.131 14.64C194.131 14.9707 194.019 15.2427 193.795 15.456C193.571 15.6693 193.262 15.776 192.867 15.776ZM200.163 29.68C199.533 29.68 198.904 29.584 198.275 29.392C197.656 29.2 197.155 28.9493 196.771 28.64L197.475 27.184C197.699 27.344 197.949 27.4827 198.227 27.6C198.504 27.7173 198.797 27.808 199.107 27.872C199.427 27.936 199.741 27.968 200.051 27.968C200.616 27.968 201.085 27.8773 201.459 27.696C201.843 27.5253 202.131 27.2587 202.323 26.896C202.515 26.544 202.611 26.1013 202.611 25.568V24.016L202.899 24.128C202.835 24.4587 202.659 24.7733 202.371 25.072C202.083 25.3707 201.72 25.616 201.283 25.808C200.845 25.9893 200.397 26.08 199.939 26.08C199.139 26.08 198.429 25.8933 197.811 25.52C197.203 25.1467 196.717 24.64 196.355 24C196.003 23.3493 195.827 22.6027 195.827 21.76C195.827 20.9173 196.003 20.1707 196.355 19.52C196.707 18.8587 197.187 18.3413 197.795 17.968C198.413 17.584 199.107 17.392 199.875 17.392C200.195 17.392 200.504 17.4293 200.803 17.504C201.101 17.5787 201.373 17.6853 201.619 17.824C201.875 17.9627 202.104 18.1173 202.307 18.288C202.509 18.4587 202.675 18.64 202.803 18.832C202.931 19.024 203.011 19.2107 203.043 19.392L202.627 19.52L202.659 17.568H204.595V25.424C204.595 26.1067 204.493 26.7093 204.291 27.232C204.088 27.7547 203.795 28.1973 203.411 28.56C203.027 28.9333 202.563 29.2107 202.019 29.392C201.475 29.584 200.856 29.68 200.163 29.68ZM200.243 24.4C200.723 24.4 201.144 24.288 201.507 24.064C201.88 23.84 202.168 23.5307 202.371 23.136C202.573 22.7413 202.675 22.288 202.675 21.776C202.675 21.2533 202.568 20.7947 202.355 20.4C202.152 19.9947 201.869 19.68 201.507 19.456C201.144 19.232 200.723 19.12 200.243 19.12C199.763 19.12 199.341 19.2373 198.979 19.472C198.616 19.696 198.328 20.0107 198.115 20.416C197.912 20.8107 197.811 21.264 197.811 21.776C197.811 22.2773 197.912 22.7307 198.115 23.136C198.328 23.5307 198.616 23.84 198.979 24.064C199.341 24.288 199.763 24.4 200.243 24.4ZM206.871 26V17.568H208.791L208.823 19.296L208.455 19.488C208.561 19.104 208.769 18.7573 209.079 18.448C209.388 18.128 209.756 17.872 210.183 17.68C210.609 17.488 211.047 17.392 211.495 17.392C212.135 17.392 212.668 17.52 213.095 17.776C213.532 18.032 213.857 18.416 214.071 18.928C214.295 19.44 214.407 20.08 214.407 20.848V26H212.439V20.992C212.439 20.5653 212.38 20.2133 212.263 19.936C212.145 19.648 211.964 19.44 211.719 19.312C211.473 19.1733 211.175 19.1093 210.823 19.12C210.535 19.12 210.268 19.168 210.023 19.264C209.788 19.3493 209.58 19.4773 209.399 19.648C209.228 19.808 209.089 19.9947 208.983 20.208C208.887 20.4213 208.839 20.656 208.839 20.912V26H207.863C207.671 26 207.489 26 207.319 26C207.159 26 207.009 26 206.871 26ZM224.252 26.16C223.644 26.16 223.116 26.0267 222.668 25.76C222.22 25.4827 221.879 25.0933 221.644 24.592C221.409 24.08 221.292 23.472 221.292 22.768V17.568H223.26V22.352C223.26 22.8 223.329 23.184 223.468 23.504C223.607 23.8133 223.809 24.0533 224.076 24.224C224.343 24.3947 224.663 24.48 225.036 24.48C225.313 24.48 225.564 24.4373 225.788 24.352C226.023 24.256 226.225 24.128 226.396 23.968C226.567 23.7973 226.7 23.6 226.796 23.376C226.892 23.1413 226.94 22.8907 226.94 22.624V17.568H228.908V26H226.988L226.956 24.24L227.308 24.048C227.18 24.4533 226.961 24.816 226.652 25.136C226.353 25.4453 225.996 25.696 225.58 25.888C225.164 26.0693 224.721 26.16 224.252 26.16ZM231.215 29.52V17.568H233.151L233.183 19.488L232.847 19.344C232.911 19.0133 233.092 18.704 233.391 18.416C233.689 18.1173 234.052 17.8773 234.479 17.696C234.916 17.5147 235.369 17.424 235.839 17.424C236.585 17.424 237.247 17.6107 237.823 17.984C238.409 18.3573 238.868 18.8693 239.199 19.52C239.54 20.1707 239.711 20.9227 239.711 21.776C239.711 22.6187 239.54 23.3707 239.199 24.032C238.868 24.6827 238.409 25.2 237.823 25.584C237.247 25.9573 236.596 26.144 235.871 26.144C235.38 26.144 234.905 26.048 234.447 25.856C233.999 25.664 233.615 25.4133 233.295 25.104C232.985 24.7947 232.793 24.4693 232.719 24.128L233.199 23.904V29.52H231.215ZM235.471 24.4C235.919 24.4 236.319 24.288 236.671 24.064C237.023 23.84 237.295 23.5307 237.487 23.136C237.689 22.7413 237.791 22.288 237.791 21.776C237.791 21.264 237.695 20.816 237.503 20.432C237.311 20.0373 237.039 19.728 236.687 19.504C236.335 19.28 235.929 19.168 235.471 19.168C235.001 19.168 234.591 19.28 234.239 19.504C233.897 19.7173 233.625 20.0213 233.423 20.416C233.22 20.8107 233.119 21.264 233.119 21.776C233.119 22.288 233.22 22.7413 233.423 23.136C233.625 23.5307 233.897 23.84 234.239 24.064C234.591 24.288 235.001 24.4 235.471 24.4Z" fill="white"/>
</svg>
