<svg width="32" height="32" viewBox="0 0 32 32" fill="none" xmlns="http://www.w3.org/2000/svg">
<g id="Support icon">
<path id="Vector" d="M16 31C17.9702 31.0025 19.9215 30.6157 21.7417 29.8617C23.5619 29.1077 25.2152 28.0015 26.6065 26.6065C28.0015 25.2152 29.1077 23.5619 29.8617 21.7417C30.6157 19.9215 31.0025 17.9702 31 16C31.0025 14.0298 30.6156 12.0785 29.8617 10.2583C29.1077 8.43811 28.0014 6.78484 26.6065 5.39351C25.2152 3.99853 23.5619 2.89226 21.7417 2.13828C19.9215 1.38429 17.9702 0.99746 16 1.00001C14.0298 0.997501 12.0785 1.38435 10.2583 2.13833C8.43811 2.89231 6.78484 3.99856 5.39351 5.39351C3.99856 6.78484 2.89231 8.43811 2.13833 10.2583C1.38435 12.0785 0.997501 14.0298 1.00001 16C0.99746 17.9702 1.38429 19.9215 2.13828 21.7417C2.89226 23.5619 3.99853 25.2152 5.39351 26.6065C6.78484 28.0014 8.43811 29.1077 10.2583 29.8617C12.0785 30.6156 14.0298 31.0025 16 31Z" stroke="#FBFBF4" stroke-linejoin="round"/>
<path id="Vector_2" d="M16.0007 19.4673V16.4673C16.8907 16.4673 17.7607 16.2034 18.5007 15.7089C19.2408 15.2144 19.8175 14.5116 20.1581 13.6894C20.4987 12.8671 20.5878 11.9623 20.4142 11.0894C20.2406 10.2165 19.812 9.41464 19.1826 8.78531C18.5533 8.15597 17.7515 7.72739 16.8786 7.55375C16.0057 7.38012 15.1009 7.46923 14.2786 7.80983C13.4563 8.15042 12.7535 8.7272 12.2591 9.46722C11.7646 10.2072 11.5007 11.0773 11.5007 11.9673" stroke="#FBFBF4" stroke-linecap="round" stroke-linejoin="round"/>
<path id="Vector_3" d="M15.3891 23.885L15.0356 24.2385L15.3891 23.885C15.2272 23.723 15.1362 23.5033 15.1362 23.2743C15.1362 23.0452 15.2272 22.8256 15.3891 22.6636C15.5511 22.5016 15.7708 22.4106 15.9998 22.4106C16.2289 22.4106 16.4485 22.5016 16.6105 22.6636C16.7725 22.8256 16.8634 23.0452 16.8634 23.2743C16.8634 23.5033 16.7725 23.723 16.6105 23.885C16.4485 24.0469 16.2289 24.1379 15.9998 24.1379C15.7708 24.1379 15.5511 24.0469 15.3891 23.885Z" fill="#FBFBF4" stroke="#FBFBF4"/>
</g>
</svg>
