<svg width="186" height="41" viewBox="0 0 186 41" fill="none" xmlns="http://www.w3.org/2000/svg">
<path d="M48.384 29L54.936 12.2H57.864L64.368 29H61.128L57.528 19.448C57.448 19.256 57.336 18.952 57.192 18.536C57.064 18.12 56.92 17.672 56.76 17.192C56.6 16.696 56.456 16.24 56.328 15.824C56.2 15.392 56.104 15.08 56.04 14.888L56.64 14.864C56.544 15.184 56.432 15.544 56.304 15.944C56.176 16.344 56.04 16.76 55.896 17.192C55.752 17.624 55.608 18.04 55.464 18.44C55.336 18.84 55.216 19.2 55.104 19.52L51.504 29H48.384ZM51.36 25.16L52.44 22.448H60.096L61.248 25.16H51.36ZM66.4858 29V16.352H69.3898L69.4378 20.384L69.0298 19.472C69.2058 18.832 69.5098 18.256 69.9418 17.744C70.3738 17.232 70.8698 16.832 71.4298 16.544C72.0058 16.24 72.6058 16.088 73.2298 16.088C73.5018 16.088 73.7578 16.112 73.9978 16.16C74.2538 16.208 74.4618 16.264 74.6218 16.328L73.8298 19.568C73.6538 19.472 73.4378 19.392 73.1818 19.328C72.9258 19.264 72.6698 19.232 72.4138 19.232C72.0138 19.232 71.6298 19.312 71.2618 19.472C70.9098 19.616 70.5978 19.824 70.3258 20.096C70.0538 20.368 69.8378 20.688 69.6778 21.056C69.5338 21.408 69.4618 21.808 69.4618 22.256V29H66.4858ZM78.4241 29V13.136H81.3761V29H78.4241ZM75.9281 19.088V16.352H84.1361V19.088H75.9281ZM101.095 29.24C99.8789 29.24 98.7669 29.032 97.7589 28.616C96.7509 28.2 95.8789 27.608 95.1429 26.84C94.4069 26.056 93.8309 25.136 93.4149 24.08C93.0149 23.008 92.8149 21.84 92.8149 20.576C92.8149 19.36 93.0309 18.232 93.4629 17.192C93.8949 16.152 94.4949 15.24 95.2629 14.456C96.0309 13.672 96.9269 13.064 97.9509 12.632C98.9749 12.2 100.087 11.984 101.287 11.984C102.103 11.984 102.895 12.104 103.663 12.344C104.431 12.584 105.135 12.92 105.775 13.352C106.415 13.768 106.951 14.256 107.383 14.816L105.391 17C104.975 16.568 104.543 16.208 104.095 15.92C103.663 15.616 103.207 15.392 102.727 15.248C102.263 15.088 101.783 15.008 101.287 15.008C100.551 15.008 99.8549 15.144 99.1989 15.416C98.5589 15.688 97.9989 16.072 97.5189 16.568C97.0549 17.064 96.6869 17.656 96.4149 18.344C96.1429 19.016 96.0069 19.768 96.0069 20.6C96.0069 21.448 96.1349 22.216 96.3909 22.904C96.6629 23.592 97.0389 24.184 97.5189 24.68C98.0149 25.176 98.5989 25.56 99.2709 25.832C99.9589 26.088 100.711 26.216 101.527 26.216C102.055 26.216 102.567 26.144 103.063 26C103.559 25.856 104.015 25.656 104.431 25.4C104.863 25.128 105.255 24.816 105.607 24.464L107.143 26.936C106.759 27.368 106.247 27.76 105.607 28.112C104.967 28.464 104.247 28.744 103.447 28.952C102.663 29.144 101.879 29.24 101.095 29.24ZM115.773 29.24C114.445 29.24 113.269 28.96 112.245 28.4C111.237 27.84 110.445 27.08 109.869 26.12C109.309 25.144 109.029 24.032 109.029 22.784C109.029 21.792 109.189 20.888 109.509 20.072C109.829 19.256 110.269 18.552 110.829 17.96C111.405 17.352 112.085 16.888 112.869 16.568C113.669 16.232 114.541 16.064 115.485 16.064C116.317 16.064 117.093 16.224 117.813 16.544C118.533 16.864 119.157 17.304 119.685 17.864C120.213 18.408 120.613 19.064 120.885 19.832C121.173 20.584 121.309 21.408 121.293 22.304L121.269 23.336H111.021L110.469 21.32H118.797L118.413 21.728V21.2C118.365 20.704 118.205 20.272 117.933 19.904C117.661 19.52 117.309 19.224 116.877 19.016C116.461 18.792 115.997 18.68 115.485 18.68C114.701 18.68 114.037 18.832 113.493 19.136C112.965 19.44 112.565 19.88 112.293 20.456C112.021 21.016 111.885 21.72 111.885 22.568C111.885 23.384 112.053 24.096 112.389 24.704C112.741 25.312 113.229 25.784 113.853 26.12C114.493 26.44 115.237 26.6 116.085 26.6C116.677 26.6 117.221 26.504 117.717 26.312C118.213 26.12 118.749 25.776 119.325 25.28L120.789 27.32C120.357 27.72 119.861 28.064 119.301 28.352C118.757 28.624 118.181 28.84 117.573 29C116.965 29.16 116.365 29.24 115.773 29.24ZM123.908 29V16.352H126.788L126.836 18.944L126.284 19.232C126.444 18.656 126.756 18.136 127.22 17.672C127.684 17.192 128.236 16.808 128.876 16.52C129.516 16.232 130.172 16.088 130.844 16.088C131.804 16.088 132.604 16.28 133.244 16.664C133.9 17.048 134.388 17.624 134.708 18.392C135.044 19.16 135.212 20.12 135.212 21.272V29H132.26V21.488C132.26 20.848 132.172 20.32 131.996 19.904C131.82 19.472 131.548 19.16 131.18 18.968C130.812 18.76 130.364 18.664 129.836 18.68C129.404 18.68 129.004 18.752 128.636 18.896C128.284 19.024 127.972 19.216 127.7 19.472C127.444 19.712 127.236 19.992 127.076 20.312C126.932 20.632 126.86 20.984 126.86 21.368V29H125.396C125.108 29 124.836 29 124.58 29C124.34 29 124.116 29 123.908 29ZM139.901 29V13.136H142.853V29H139.901ZM137.405 19.088V16.352H145.613V19.088H137.405ZM147.861 29V16.352H150.765L150.813 20.384L150.405 19.472C150.581 18.832 150.885 18.256 151.317 17.744C151.749 17.232 152.245 16.832 152.805 16.544C153.381 16.24 153.981 16.088 154.605 16.088C154.877 16.088 155.133 16.112 155.373 16.16C155.629 16.208 155.837 16.264 155.997 16.328L155.205 19.568C155.029 19.472 154.813 19.392 154.557 19.328C154.301 19.264 154.045 19.232 153.789 19.232C153.389 19.232 153.005 19.312 152.637 19.472C152.285 19.616 151.973 19.824 151.701 20.096C151.429 20.368 151.213 20.688 151.053 21.056C150.909 21.408 150.837 21.808 150.837 22.256V29H147.861ZM163.351 29.24C162.023 29.24 160.847 28.96 159.823 28.4C158.815 27.84 158.023 27.08 157.447 26.12C156.887 25.144 156.607 24.032 156.607 22.784C156.607 21.792 156.767 20.888 157.087 20.072C157.407 19.256 157.847 18.552 158.407 17.96C158.983 17.352 159.663 16.888 160.447 16.568C161.247 16.232 162.119 16.064 163.063 16.064C163.895 16.064 164.671 16.224 165.391 16.544C166.111 16.864 166.735 17.304 167.263 17.864C167.791 18.408 168.191 19.064 168.463 19.832C168.751 20.584 168.887 21.408 168.871 22.304L168.847 23.336H158.599L158.047 21.32H166.375L165.991 21.728V21.2C165.943 20.704 165.783 20.272 165.511 19.904C165.239 19.52 164.887 19.224 164.455 19.016C164.039 18.792 163.575 18.68 163.063 18.68C162.279 18.68 161.615 18.832 161.071 19.136C160.543 19.44 160.143 19.88 159.871 20.456C159.599 21.016 159.463 21.72 159.463 22.568C159.463 23.384 159.631 24.096 159.967 24.704C160.319 25.312 160.807 25.784 161.431 26.12C162.071 26.44 162.815 26.6 163.663 26.6C164.255 26.6 164.799 26.504 165.295 26.312C165.791 26.12 166.327 25.776 166.903 25.28L168.367 27.32C167.935 27.72 167.439 28.064 166.879 28.352C166.335 28.624 165.759 28.84 165.151 29C164.543 29.16 163.943 29.24 163.351 29.24ZM176.574 29.24C175.454 29.24 174.446 28.96 173.55 28.4C172.67 27.824 171.966 27.048 171.438 26.072C170.926 25.08 170.67 23.944 170.67 22.664C170.67 21.4 170.926 20.272 171.438 19.28C171.95 18.288 172.646 17.512 173.526 16.952C174.422 16.376 175.43 16.088 176.55 16.088C177.158 16.088 177.742 16.184 178.302 16.376C178.878 16.568 179.39 16.832 179.838 17.168C180.286 17.488 180.638 17.848 180.894 18.248C181.166 18.648 181.318 19.064 181.35 19.496L180.558 19.592V11.24H183.51V29H180.654L180.582 26.024L181.158 26.072C181.142 26.472 180.998 26.856 180.726 27.224C180.47 27.592 180.134 27.928 179.718 28.232C179.302 28.536 178.814 28.784 178.254 28.976C177.71 29.152 177.15 29.24 176.574 29.24ZM177.15 26.744C177.838 26.744 178.446 26.568 178.974 26.216C179.502 25.864 179.91 25.384 180.198 24.776C180.502 24.168 180.654 23.464 180.654 22.664C180.654 21.88 180.502 21.184 180.198 20.576C179.91 19.952 179.502 19.472 178.974 19.136C178.446 18.784 177.838 18.608 177.15 18.608C176.462 18.608 175.854 18.784 175.326 19.136C174.798 19.472 174.382 19.952 174.078 20.576C173.79 21.184 173.646 21.88 173.646 22.664C173.646 23.464 173.79 24.168 174.078 24.776C174.382 25.384 174.798 25.864 175.326 26.216C175.854 26.568 176.462 26.744 177.15 26.744Z" fill="#FBFBF4"/>
<path d="M28.0148 2.01571C24.5488 0.285091 20.6606 -0.351902 16.8418 0.18528C13.0231 0.722462 9.44534 2.40969 6.56099 5.03362C3.67663 7.65754 1.61523 11.1003 0.637463 14.9265C-0.340306 18.7528 -0.190529 22.7906 1.06785 26.5295C2.32624 30.2684 4.63671 33.5404 7.70709 35.9317C10.7775 38.3229 14.4699 39.7262 18.3174 39.9639C22.1648 40.2016 25.9946 39.263 29.3223 37.267C32.6501 35.271 35.3263 32.3071 37.0127 28.7502L35.6874 28.0884C34.1286 31.3764 31.6547 34.1161 28.5786 35.9612C25.5026 37.8063 21.9624 38.6738 18.4059 38.4541C14.8494 38.2343 11.4363 36.9373 8.59807 34.7268C5.75989 32.5164 3.62415 29.4918 2.46093 26.0357C1.29772 22.5796 1.15927 18.8471 2.06309 15.3102C2.96692 11.7733 4.87242 8.59095 7.53864 6.16547C10.2049 3.73999 13.5121 2.18035 17.042 1.6838C20.5719 1.18724 24.1661 1.77606 27.3699 3.37579L28.0148 2.01571Z" fill="#FBFBF4"/>
<path d="M5.88378 27.864C6.84391 28.2691 25.7989 21.7612 28.8991 18.0752L28.3919 16.3173C17.9585 19.0158 12.05 23.5032 5.04137 27.4336L5.88378 27.864ZM30.1194 17.6272C35.6694 18.1748 34.7698 14.447 40.2729 15.0413C35.5127 11.1924 32.4877 13.3607 29.6162 15.8606L30.1194 17.6272Z" fill="#FBFBF4"/>
<path d="M5.73193 40.2354L18.5547 6.78856C18.8829 5.93253 20.094 5.93253 20.4222 6.78856L33.245 40.2354" stroke="#FBFBF4" stroke-linecap="round"/>
<ellipse cx="12.1249" cy="6.56081" rx="1.80755" ry="1.855" fill="#FBFBF4"/>
<ellipse cx="7.53948" cy="10.0904" rx="1.80755" ry="1.855" fill="#FBFBF4"/>
<ellipse cx="4.67352" cy="14.7962" rx="1.80755" ry="1.855" fill="#FBFBF4"/>
<ellipse cx="4.10028" cy="20.0904" rx="1.80755" ry="1.855" fill="#FBFBF4"/>
</svg>
